<?xml version="1.0" encoding="utf-8"?>
<!-- Generator: Adobe Illustrator 14.0.0, SVG Export Plug-In . SVG Version: 6.00 Build 43363)  -->
<!DOCTYPE svg PUBLIC "-//W3C//DTD SVG 1.1//EN" "http://www.w3.org/Graphics/SVG/1.1/DTD/svg11.dtd">
<svg version="1.1" xmlns="http://www.w3.org/2000/svg" xmlns:xlink="http://www.w3.org/1999/xlink" x="0px" y="0px"
	 width="201.818px" height="260.455px" viewBox="0 0 201.818 260.455" enable-background="new 0 0 201.818 260.455"
	 xml:space="preserve">
<g id="Arrière-plan_xA0_Image_1_" display="none">
</g>
<g id="Calque_2_xA0_Image_3_">
	<path fill-rule="evenodd" clip-rule="evenodd" fill="#BC9C5E" d="M108.001,10.08c0.637,2.084,3.494,1.2,5.52,1.68
		c1.071,0.253,1.63,1.028,2.4,1.2c0.491,0.628,0.717,1.523,0.96,2.4c1.375,1.497,3.503,2.398,5.52,3.6
		c1.345,0.801,2.901,1.617,4.32,2.64c0.083,0.06,0.166,0.447,0.24,0.48c0.672,0.303,1.22,0.771,1.68,1.92
		c0.093,0.233,0.221,0.656,0.24,0.72c0.2,0.659,0.289,1.671,0.239,2.88c0.698,1.023,1.641,1.685,2.641,1.68
		c2.293-0.01,3.774-4.022,6.96-3.36c0.35,0.373-0.184,0.769-0.24,1.2c-0.377,2.859,0.745,5.103,2.4,6.48
		c0.262,0.218,0.776,0.223,1.199,0.48c0.324,0.197,0.455,0.554,0.721,0.72c1.448,0.904,3.124,1.816,4.8,2.64
		c1.774,0.873,5.072,1.064,7.439,1.44c1.253,0.199,2.624,0.572,3.841,0.96c1.161,0.371,2.235,0.822,3.12,1.44
		c0.096,0.067,0.398-0.081,0.479,0c0.082,0.082-0.077,0.394,0,0.48c0.598,0.672,2.017,1.479,2.4,2.64
		c1.135-0.095,2.003,0.077,2.88,0.24c0.863,0.336,0.937,1.463,1.92,1.68c1.891-0.536,3.249-1.778,6-0.96
		c0.632,0.188,1.725,1.147,2.64,1.44c2.26,0.723,4.508,0.583,6.72,1.2c0.78,0.719,0.224,1.468,0,2.16
		c-0.306,0.948-1.087,2.271-1.68,3.12c-0.411,0.588-0.769,0.803-1.2,1.68c-0.143,0.291-0.405,0.746-0.479,0.96
		c-0.566,1.628-0.233,3.626-0.72,5.52c-0.05,0.193-0.382,0.468-0.48,0.72c-0.479,1.219-0.992,2.689-1.44,4.32
		c-1.031,3.755,0.538,10.659-1.92,13.68c-0.705,0.867-2.563,2.043-4.56,1.92c-0.904,0.561-1.054,1.499-1.44,2.4
		c-0.498,1.162-1.258,3.024-2.159,4.08c-1.487,1.742-3.545,2.369-5.04,4.08c0.291,1.068,0.261,2.459,0.239,3.84
		c-1.613,2.307-4.124,3.716-4.56,7.2c0.154,1.23,0.973,1.329,0.96,2.4c-0.017,1.441-1.495,1.839-1.92,3.12
		c2.402-0.158,3.105-2.015,3.12-4.56c1.916-1.204,4.225-2.015,7.2-2.16c0.756,0.728,1.396,1.099,1.68,2.4
		c0.214,0.979-0.296,2.088,0,3.36c0.523,2.249,3.113,3.461,2.88,5.28c-0.09,0.696-0.551,1.207-1.2,1.44
		c-0.132,0.702-0.663,1.162-0.72,1.68c-0.254,2.321,2.183,4.415,3.36,6c0.96,1.294,1.462,2.403,1.199,5.28
		c-1.488,1.951-3.835,3.045-6.479,3.84c-0.359,0.694,0.379,1.055,0.96,1.439c0.604,0.4,1.611,1.298,2.399,1.92
		c1.349,1.065,2.84,1.952,3.12,3.841c-1.137,1.488-2.849,1.931-3.12,3.84c-0.183,1.287,0.464,3.1,1.44,4.319
		c0.592,0.739,1.373,1.278,2.4,1.92c1.074,0.672,2.859,2.161,4.56,2.4c1.189,0.167,2.597-0.735,3.6,0
		c0.482,2.514-1.24,5.189-2.64,6.96c-0.354,0.447-0.807,0.848-1.2,1.44c-0.019,0.028-0.196,0.436-0.239,0.479
		c-0.191,0.191-0.491,0.068-0.721,0.24c-0.212,0.159-0.82,0.799-1.2,1.2c-0.225,0.237-0.435,0.621-0.72,0.96
		c-0.855,1.016-2.004,2.517-2.88,3.84c-0.144,0.217-0.357,0.834-0.479,0.96c-0.151,0.155-0.562,0.092-0.721,0.24
		c-0.099,0.092-0.138,0.407-0.239,0.479c-0.866,0.612-2.198,1.056-2.881,1.92c-0.429,0.544-0.395,1.147-0.72,1.681
		c-0.231,0.379-0.653,0.98-0.96,1.199c-0.48,0.344-1.27,0.288-1.92,0.48c-0.127,0.038-0.629,0.46-0.72,0.48
		c-0.866,0.194-1.962,0.269-2.88,0.479c-1.191,0.273-2.248,0.636-4.08,0.48c-0.644-0.056-1.426-0.351-2.16-0.48
		c-1.475-0.261-2.559-0.304-3.84-0.72c-2.385-0.774-4.321-2.749-6.96-3.601c-1.53-0.493-4.388,0.254-6.24,0
		c-0.906-0.124-1.657-0.605-2.4-0.96c-1.663-0.792-3.647-1.851-6.479-1.92c-0.582-0.014-1.253,0.198-1.92,0.24
		c-0.681,0.042-1.272-0.135-1.92,0c-2.558,0.531-5.456,3.37-7.681,5.04c-0.213,0.16-0.307,0.074-0.479,0.24
		c-0.854,0.816-1.773,1.328-2.641,2.64c-0.871,1.318-1.703,3.087-1.92,5.521c-0.164,1.842-0.138,4.105,0.24,5.76
		c0.265,1.156,1.096,2.054,1.2,3.359c-4.632,0.247-9.999,1.923-14.88,1.44c-2.561-0.253-4.129-1.565-6.24-2.16
		c-0.83-0.794-1.007-2.131-2.16-2.64c-0.995-0.439-2.062-0.144-3.6-0.24c-2.138-2.618-5.937-4.356-10.8-4.56
		c-0.635,0.564-0.345,2.055-0.96,2.64c-2.78,1.369-7.908,0.461-11.04-0.48c-2.042-0.613-3.491-1.723-4.8-2.399
		c-1.113,0.019-2.076,0.546-3.12,0.479c-2.02-0.128-3.663-1.835-5.76-2.88c-0.957-0.477-2.135-0.751-3.12-1.2
		c-0.503-0.229-0.938-0.478-1.44-0.72c-0.413-0.198-0.867-0.61-1.2-0.72c-1.233-0.406-2.425,0.071-3.6-0.96
		c-0.25-1.911,1.184-1.964,0.96-3.36c-0.352-2.189-3.002-1.397-4.8-2.64c0.403-1.084,1.31-1.721,1.92-2.641
		c0.149-0.225,0.456-0.561,0.72-0.96c1.696-2.558,3.148-6.619,3.84-10.56c0.094-0.533-0.087-1.175,0-1.68
		c0.078-0.457,0.383-0.744,0.48-1.2c0.194-0.915,0.206-1.956,0.48-2.88c0.186-0.627,0.75-1.045,0.96-1.681
		c0.267-0.809,0.305-1.83,0.48-2.64c0.2-0.923,0.536-1.752,0.48-2.64c0.748-0.532,2.26-0.3,2.16-1.681
		c-0.847-1.225-1.35,0.292-2.16,0.48c-0.163-6.883,1.064-12.375,1.92-18.24c2.717,0.323,3.659,2.421,5.28,3.84
		c0.326-1.313-0.577-2.273-1.2-3.36c-0.583-1.017-0.64-1.365-1.68-2.16c-1.078-0.824-2.744-1.516-3.6-2.88
		c0.598-1.687,2.661-3.572,2.4-5.76c-0.155-1.301-1.109-1.641-1.68-2.88c-0.142-1.262,0.487-1.753,0.72-2.64
		c-1.309-0.254-2.556-1.053-3.84-1.68c-1.372-0.67-3.472-2.188-4.56-3.6c-0.363-0.47-0.421-1.208-0.72-1.68
		c-0.059-0.093-0.444-0.16-0.48-0.24c-0.378-0.838-0.857-1.35-1.68-2.16c-0.828-0.815-2.379-2.908-2.16-4.8
		c0.146-1.268,1.011-1.728,1.68-2.64c-0.257-1.263-1.756-1.284-2.4-2.16c-0.012-1.212,1.439-0.961,1.2-2.4
		c-0.633-0.382-2.307,0.245-3.6,0c-1.535-0.824-2.186-3.417-0.96-5.04c-1.667-0.493-3.981-0.339-5.52-0.96
		c-0.411-1.215,1.119-1.21,0.48-1.92c-1.809-0.008-2.742,2.003-4.8,0.96c-0.69-0.511-0.78-1.621-0.96-2.64
		c-0.555-0.531-1.408-0.713-2.16-1.2c-0.694-0.45-2.287-1.48-3.36-1.92c-1.561-0.64-3.44-0.596-4.56-1.92
		c-1.005,1.113-2.959,2.149-4.8,0.96c-0.601-0.388-0.699-1.233-1.2-1.92c-0.418-0.573-0.893-1.24-1.44-1.68
		c-1.168-0.938-2.386-0.684-2.88-1.92c0.542-2.178,4.715-0.725,6-2.16c-0.855-1.305-3.943-0.376-4.32-2.16
		c0.276-1.724,2.927-1.073,4.32-1.68c-0.668-1.892-4.911-0.208-6.24-1.44c-0.752-1.858,0.784-3.111,1.44-4.32
		c0.941-0.265,1.815-0.051,2.64-0.24c1.994-0.458,3.466-2.153,5.76-2.16c2.212-0.006,3.972,1.611,6,1.2
		c1.313-0.266,2-2.022,3.12-2.64c0.784-0.432,1.994-0.676,2.64-0.72c1.816-0.123,3.265,0.502,4.32,1.44
		c0.38,0.337,0.638,0.633,0.96,0.96c0.633,0.643,1.5,1.288,1.92,1.92c0.562,0.845,0.826,2.378,1.68,3.12
		c2.001-0.488,2.235-2.551,4.32-2.64c0.896-0.038,1.697,0.849,2.64,0.96c2.044,0.242,3.015-0.71,5.04-1.2
		c1.031-0.231,0.421,1.179,1.2,1.2c1.04,0,2.08,0,3.12,0c0.344-0.931-0.381-1.748-0.48-2.64c-0.399-3.589,0.357-6.485-0.72-9.12
		c-0.421-1.029-1.192-1.832-1.68-2.88c-0.229-0.492-0.266-1.091-0.48-1.68c-0.191-0.525-0.631-0.999-0.72-1.44
		c-0.085-0.423,0.106-1.044,0-1.44c-0.288-1.076-0.881-2.093-1.2-3.36c0.664-0.607,1.317,0.151,2.16,0.24
		c2.541,0.268,5.68-0.443,7.68,0c-0.428,2.431-0.442,5.26,1.2,6.48c0.626,0.465,2.012,0.631,3.36,0.96
		c2.709,0.661,8.19,1.997,11.04,1.68c1.937-0.215,3.07-1.392,3.84-2.16c0.113-1.153-1.553-0.527-1.44-1.68
		c-0.157-0.75,0.222-1.439,0.48-2.16c0.667-1.862,1.838-3.417,3.84-4.32c1.294-0.583,2.889-0.557,4.32-0.96
		c0.785-0.221,1.698-0.628,2.64-0.96c0.785-0.276,1.625-0.646,2.4-0.96c1.003-0.406,2.017-0.868,2.88-1.44
		c0.226-0.149,0.561-0.456,0.96-0.72c0.048-0.032,0.414-0.179,0.48-0.24c0.248-0.226,0.351-0.773,0.72-1.2
		c0.548-0.634,0.995-0.956,1.44-1.92c0.191-0.416,0.264-1.131,0.48-1.92c0.93-3.391,0.92-6.731,0.72-11.52
		c1.181-1.705,5.549-2.742,8.4-3.6c1.01-0.304,2.074-0.839,2.88-0.96c1.597-0.239,2.705,0.426,3.36,1.44
		C108.614,8.562,107.855,9.186,108.001,10.08z M101.761,7.92c-1.948,0.572-3.641,1.228-5.28,1.92c-0.844,0.357-2.1,0.55-2.4,1.44
		c-0.306,2.732,0.315,6.981-0.24,10.08c1.339,0.742,2.599,0.297,3.84,0.72c1.058,0.361,1.955,1.518,3.12,1.92
		c1.143,0.395,2.216,0.295,3.6,0.48c0.849,0.695,1.329,1.639,2.4,2.16c0.62,0.302,1.801,0.445,2.88,0.72
		c0.933,0.237,1.959,0.587,2.88,0.72c3.584,0.518,7.504-0.018,11.28,0.24c1.74,0.119,3.236,0.649,4.8,0.48
		c-0.848-1.303-0.188-2.688-0.48-3.84c-0.115-0.455-0.569-0.941-0.72-1.2c-0.692-1.197-1.639-1.619-2.88-2.4
		c-0.423-0.266-0.828-0.743-1.2-0.96c-0.572-0.333-1.162-0.414-1.68-0.72c-0.438-0.259-0.8-0.719-1.2-0.96
		c-0.575-0.347-1.193-0.422-1.68-0.72c-0.149-0.091-0.29-0.357-0.48-0.48c-0.834-0.541-1.54-0.857-2.16-1.44
		c0.056-1.095-0.403-1.676-0.72-2.4c-1.781-1.818-6.801-0.399-7.92-2.88c-0.61-1.032,0.333-2.125-0.24-3.12
		C105.297,6.75,103.526,7.401,101.761,7.92z M122.641,29.28c-3.816-0.217-8.295,0.336-11.28-0.24
		c-0.716-0.138-1.618-0.751-2.399-0.96c-1.107-0.296-2.234-0.164-2.881-0.48c-0.965-0.473-1.432-1.563-2.159-2.16
		c-4.391-0.09-5.955-3.006-10.32-3.12c-0.347,1.26-0.692,2.346-1.2,3.36c-0.454,0.906-1.02,1.528-1.44,2.4
		c1.749,1.612,3.648,2.334,4.32,4.56c0.453,1.499,0.085,3.105,0,5.04c-0.067,1.53-0.015,3.11,0,4.56
		c0.016,1.476-0.26,2.976,0.48,4.08c0.977,0.271,2.1-0.033,3.12,0c2.944,0.097,7.604,1.193,10.32,1.68
		c2.292,0.411,5.641,0.871,6.96,1.68c0.53,0.325,1.038,0.564,1.2,0.72c0.166,0.159,0.281,0.084,0.48,0.24
		c0.854,0.668,1.165,1.879,2.16,2.16c0.614-1.11,1.537-2.086,1.92-3.6c0.489-1.937,0.186-4.182,0.72-6.24
		c0.871-0.809,1.918-1.441,3.84-1.2c0.756-1.975,1.449-4.065,2.16-5.521c0.925-1.895,1.738-3.778,1.2-6.24
		C127.649,29.847,125.206,29.426,122.641,29.28z M130.801,30.24c0.27,1.798-0.068,3.675-0.48,4.8
		c-0.394,1.078-1.253,2.029-1.68,3.12c-0.62,1.583-0.474,3.421-1.68,4.56c-0.706,0.526-1.981-0.406-2.881,0.24
		c-1.722,1.884-0.669,4.887-1.439,7.2c-0.281,0.842-1.008,1.517-1.44,2.16c-0.581,0.867-1.258,1.411-1.439,2.4
		c0.46,1.466,1.021,3.05,0.72,4.8c-0.188,1.091-1.307,1.894-1.2,2.88c0.73,0.808,1.685,1.322,2.4,2.16
		c0.387,0.453,0.513,0.956,0.72,1.44c0.124,0.289,0.37,0.484,0.48,0.72c0.28,0.599,0.395,1.414,0.72,1.92
		c0.23,0.358,0.881,0.826,1.2,1.2c0.472,0.554,0.731,1.124,1.2,1.44c0.367,0.249,1.35,0.647,1.92,0.72
		c1.665,0.214,3.515-0.845,5.52-0.96c1.998-0.115,3.606,0.324,5.521,0.96c0.612,0.957,1.085,1.928,1.68,2.64
		c0.843,1.008,1.488,1.574,2.64,2.16c3.004,1.528,4.245,0.004,6-1.68c1.265-1.213,2.545-2.132,2.641-3.36
		c0.055-0.71-0.602-1.66-0.96-2.64c-0.195-0.534-0.078-1.038-0.24-1.44c-0.212-0.524-0.511-0.803-0.72-1.2
		c-0.635-1.201-1.49-2.382-2.16-3.36c-0.152-0.222-0.339-0.295-0.48-0.48c-0.146-0.192-0.079-0.523-0.24-0.72
		c-0.878-1.074-3.43-3.18-4.56-4.56c-0.911-1.113-2.094-2.115-2.4-3.36c-0.617-2.512,0.405-5.508,0.721-8.16
		c0.353-2.97,0.309-5.454,1.439-7.92c1.446,0.029,1.862,0.318,2.641-0.48c-0.294-0.933-1.441-1.227-2.16-1.68
		c-0.808-0.509-1.83-0.975-2.4-1.44c-2.12-1.731-2.724-3.952-3.12-7.44C134.924,27.803,134.068,30.228,130.801,30.24z M92.88,53.76
		c-0.485-1.479-1.379-3.042-1.2-4.08c0.287-1.66,2.538-2.187,2.88-4.08c0.104-0.573-0.198-1.456-0.24-2.4
		c-0.174-3.936,0.981-8.541,0-10.8c-0.189-0.437-1.002-1.528-1.2-1.68c-0.166-0.126-0.57-0.091-0.72-0.24
		c-0.742-0.737-1.492-1.845-2.16-2.16c-0.002,0.317-0.42,0.22-0.479,0.48c-1.724,1.383-3.52,2.109-5.76,2.88
		c-1.139,0.392-2.276,0.888-3.36,1.2c-1.334,0.384-2.481,0.491-3.6,0.96c-0.515,0.216-0.92,0.377-1.44,0.72
		c-0.756,0.498-1.212,0.934-1.44,1.44c-0.03,0.066-0.421,0.169-0.48,0.24c-0.625,0.75-0.787,1.795-0.96,2.88
		c0.375,0.905,2.095,0.465,2.4,1.44c-0.917,0.917-1.838,2.456-3.6,3.12c-1.869,0.705-3.972,0.321-6.24,0
		c-2.608-0.369-4.738-0.971-6.72-1.44c-2.272-0.538-3.063-0.587-4.08-1.44c-0.325-0.272-0.518-0.413-0.72-0.72
		c-0.986-1.497-0.661-3.626-0.72-5.52c-2.653-0.141-5.039,0.608-7.44,0c-0.355,0.905,0.302,1.581,0.48,2.4
		c0.212,0.979,0.117,1.911,0.48,2.88c0.114,0.304,0.562,0.644,0.72,0.96c0.237,0.473,0.25,1.01,0.48,1.44
		c0.433,0.809,1.094,1.5,1.44,2.4c1.073,2.791,0.349,8.115,1.2,11.04c0.021,0.619,1.027,0.252,0.72,1.2
		c0.131,1.012-1.876-0.116-1.68,0.96c1.371,2.782,5.058,1.373,8.4,1.2c1.463-0.076,2.894,0.177,4.32,0.24
		c1.613,0.071,3.776-0.079,4.8,0.24c2.172,0.677,4.024,1.9,6,2.88c2.121,1.052,4.231,1.971,6.24,2.88
		c0.946-0.066,0.734,1.026,1.68,0.96c0.829-1.771,2.067-1.938,2.16-3.6c0.064-1.138-1.029-1.986-0.96-3.36
		c0.095-1.897,1.626-3.063,2.88-3.6c1.175-0.504,3.142-0.146,4.32-0.72c0.943-0.46,1.313-1.533,1.92-2.4
		c0.07-0.213,0.649-1.051,0.72-0.48c-0.582,1.912-1.052,3.149-2.88,3.84c-0.925,0.35-1.972,0.062-2.88,0.24
		c-1.419,0.279-3.01,1.756-3.12,3.12c-0.096,1.191,1.042,2.425,0.96,3.6c-0.118,1.697-1.774,2.464-2.16,3.6
		c-0.64,1.887-0.06,3.23-0.24,4.8c-0.066,0.579-0.301,1.487-0.48,2.16c-0.519,1.949-1.395,3.413-2.4,4.56
		c-0.974,1.111-2.204,1.359-3.36,2.4c-1.521,1.369-2.385,3.156-3.12,5.04c-0.274,0.704-0.955,1.333-0.72,2.16
		c-0.145,0.864,0.732,0.707,0.72,1.44c0.425,0.005-0.382,1.132,0.24,1.44c0.393,0.794,1.342,1.287,1.92,1.68
		c0.229,0.155,0.498,0.593,0.72,0.72c0.976,0.557,2.147,0.638,3.12,1.2c0.118,0.068,0.333,0.37,0.48,0.48
		c1.685,1.261,2.959,2.161,4.32,3.6c0.767,0.812,1.526,1.702,1.92,2.64c0.562,1.339,0.415,2.803,1.2,4.32
		c2.082,0.871,3.8,0.588,5.76,0.24c2.208-0.393,5.175-1.093,7.2-1.2c1.774-0.094,3.397,0.28,4.56-0.24
		c0.397-0.178,0.861-0.87,1.2-1.2c0.2-0.195,0.538-0.269,0.72-0.48c0.249-0.291,0.223-0.653,0.479-0.96
		c0.867-1.032,2.086-2.353,2.881-2.88c0.474-0.314,0.834-0.493,1.199-0.72c0.989-0.615,1.71-1.166,2.88-1.68
		c-0.379-1.656,0.056-3.179,0-4.8c-0.106-3.15-1.37-6.16-1.439-9.12c-0.017-0.695,0.196-1.451,0.24-2.16
		c0.053-0.847-0.108-1.629,0-2.4c0.283-2.025,1.654-3.916,1.199-6.24c-0.5-0.379-0.47-1.289-1.439-1.2
		c-0.49-0.47-0.503-1.417-1.44-1.44c-1.066,0.458-3.208,1.105-4.56,0.48c-0.756-0.931,0.458-1.496,0.24-2.64
		c-1.447-1.903-4.4-0.268-6.96-0.48c-0.735-0.225-0.59-1.33-1.2-1.68C95.131,61.484,94.194,57.764,92.88,53.76z M173.04,45.84
		c-1.38,0.164-2.188,1.527-3.359,1.44c-1.754-0.13-2.569-3.091-5.28-2.16c-1.248-0.945-1.588-2.454-2.88-3.36
		c-0.622-0.437-1.798-0.597-2.88-0.96c-0.974-0.327-1.917-0.79-2.88-0.96c-2.232-0.393-4.817-0.284-6.96-0.96
		c-1.009-0.318-2.084-1.345-2.88-1.2c-0.632,0.248-0.809,0.952-1.44,1.2c-0.318,0.721-1.65-0.746-1.68,0.48
		c-0.927,4.434-1.479,9.241-1.681,14.4c0.712,1.723,2.549,2.857,3.36,4.08c0.466,0.702,0.943,0.742,1.44,1.2
		c0.784,0.725,1.418,1.744,1.92,2.4c0.298,0.39,0.761,0.7,0.96,0.96c0.159,0.209,0.078,0.49,0.239,0.72
		c0.253,0.359,0.724,0.608,0.961,0.96c0.14,0.208,0.133,0.54,0.239,0.72c1.158,1.955,2.199,4.058,2.641,6.72
		c1.036-0.229,1.636-1.008,2.64-1.2c4.593-0.877,9.581,1.505,12.48,2.88c0.896-2.22,1.747-4.722,2.399-6.96
		c0.236-0.81,0.628-1.795,0.72-2.64c0.182-1.673-0.438-3.393-0.239-5.04c0.164-1.372,1.385-2.507,1.199-3.84
		c-0.865-1.339-3.635-1.727-3.6-4.08c0.013-0.865,0.284-1.83,1.44-2.16c1.139-0.325,2.479,0.944,4.08,0.96
		c1.818,0.018,2.77-0.276,3.119-2.4C175.362,46.2,174.754,45.637,173.04,45.84z M94.8,46.8c-0.457,1.119-2.004,1.743-2.16,3.12
		c-0.109,0.96,0.992,3.008,1.2,3.84c0.331,1.324,0.356,1.808,0.72,2.64c1.137,2.601,2.417,6.162,4.08,7.44
		c0.262,0.538,0.397,1.203,0.72,1.68c1.722-0.438,3.302-1.019,5.521-0.96c0.472-1.368,1.082-2.597,1.199-4.32
		c-1.077-0.922-2.963-1.036-3.84-2.16c-2.183,0.068-3.649-1.774-2.16-3.36c0.598-0.202,1.286-0.314,2.16-0.24
		c0.377-0.412,0.78-0.536,1.2-0.96c0.378-0.381,0.545-1.062,0.96-1.44c0.154-0.14,0.716-0.305,0.96-0.48
		c1.107-0.795,1.295-1.696,1.92-2.88C103.952,47.317,98.48,47.087,94.8,46.8z M178.08,47.52c-0.584,1.129-0.563,1.87-1.439,2.4
		c-0.673,0.407-2.128,0.555-3.12,0.48c-1.351-0.102-2.75-1.34-3.84-0.72c-1.225,3.224,3.329,2.274,3.6,5.28
		c0.109,1.215-1.062,2.572-1.2,3.84c-0.162,1.495,0.384,3.174,0.24,4.8c-0.162,1.841-0.923,3.622-1.439,5.28
		c-0.579,1.858-1.191,3.661-1.92,5.04c0.058,0.792,0.792,1.027,1.199,1.68c0.397,0.637,0.576,1.51,0.96,2.16
		c0.568,0.962,1.262,1.806,1.681,2.64c0.155,0.311,0.09,1.061,0.72,0.96c2.699-0.891,3.942-2.637,4.32-5.28
		c0.377-2.642-0.407-5.921,0-8.88c0.231-1.684,1.153-3.575,1.68-5.04c0.184-0.513,0.614-1.197,0.72-1.68
		c0.34-1.545,0.03-3.196,0.48-4.56c0.162-0.493,0.656-1.112,0.96-1.68c0.343-0.641,0.63-1.365,0.96-1.92
		c0.115-0.194,0.582-0.288,0.72-0.48c0.194-0.269,0.359-0.734,0.48-0.96c0.384-0.718,0.587-1.381,0.72-2.16
		C182.672,48.049,180.234,47.926,178.08,47.52z M106.32,52.32c0.715,0.082,1.384,0.599,1.92,0.96c0.518,0.348,1.393,0.634,1.44,1.44
		c0.202,1.002-0.467,1.133-0.48,1.92c0.224,0.576,0.965,0.635,0.721,1.68c-0.277,1.324-1.774,1.427-2.881,1.92
		c-0.006,1.914-0.854,2.985-1.199,4.56c0.61,1.167,1.297,2.178,0.479,3.6c2.392,0.151,3.743-0.737,5.521-1.2
		c0.854-1.094,1.391-2.375,2.64-3.12c0.98-0.585,2.434-0.627,3.6-1.2c0.158-1.254,1.23-2.194,1.44-3.6
		c0.271-1.814-0.622-3.664-0.48-5.76c-0.665-0.693-1.407-1.683-1.92-2.16c-0.19-0.178-0.498-0.076-0.72-0.24
		c-0.351-0.259-0.61-0.797-0.96-0.96c-0.88-0.41-2.325-0.471-3.6-0.72c-1.322-0.258-3.021-0.681-4.08-0.72
		C107.822,50.462,106.789,51.108,106.32,52.32z M33.121,58.8c-1.294-0.176-1.856-2.312-2.88-3.84
		c-1.087-1.621-2.195-2.686-3.36-3.36c-1.941-0.101-3.65,0.03-5.04,0.48c-0.886,0.922-1.344,2.2-2.64,2.64
		c-2.573,0.873-4.788-1.347-7.68-0.96c-1.711,0.229-2.928,1.56-4.32,1.92c-0.857,0.222-1.57,0.215-2.64,0.24
		c-0.55,0.81-1.033,1.688-1.2,2.88c2.485,0.555,6.358-0.278,6.96,2.16C9.852,62.412,7.402,61.882,6,62.4
		c0.085,0.868,1.232,0.708,1.92,0.96c0.839,0.307,1.885,0.188,1.92,1.2c-0.198,2.362-3.472,1.648-5.52,2.16
		c0.496,1.246,2.05,1.273,2.88,2.16c0.112,0.12,0.168,0.6,0.24,0.72c0.5,0.844,1.058,1.375,1.44,2.16
		c0.79,0.01,1.195,0.405,2.16,0.24c1.024-0.176,0.82-1.58,2.16-1.44c0.774,0.27,1.206,0.865,1.92,1.2
		c0.83,0.388,1.833,0.393,2.64,0.72c0.521,0.21,0.931,0.702,1.44,0.96c1.767,0.896,3.539,1.45,4.8,2.64
		c0.084,0.956,0.522,1.558,0.72,2.4c2.471,0.306,3.809-2.39,5.76-0.48c0.333,1.083-0.933,1.198-0.24,1.92
		c1.812,0.268,4.033,0.126,5.76,0.48c2.139-1.285,4.375-3.01,6.72-3.84c1.268-0.449,3.223-0.635,4.32-0.96
		c1.062-0.315,1.499-0.722,2.4-1.2c0.546-0.29,1.271-0.417,1.68-0.72c0.493-0.365,1.429-1.299,1.92-1.92
		c0.949-1.2,1.553-2.704,1.68-4.32c0.2-2.545-0.076-5.233,0.48-6.96c-3.599,0.239-6.32-0.4-6.96-3.12
		c-1.627,0.027-3.356,0.156-3.6-1.2c-1.291,0.718-2.96,1.446-4.8,1.2c-1.078-0.144-1.635-1.045-2.64-0.96
		C35.256,56.822,35.078,59.067,33.121,58.8z M104.881,53.04c-0.66,0.78-1.063,1.818-2.16,2.16c-1.353-0.152-2.155,0.246-2.4,1.2
		c0.847,0.534,2.052,0.849,3.36,1.44c1.188,0.537,2.366,1.488,3.359,1.44c0.512-0.024,1.485-0.171,1.681-0.96
		c0.79-0.575-0.873-0.708-0.48-1.68c-0.155-0.955,0.636-0.965,0.48-1.92C107.404,54.196,106.608,53.152,104.881,53.04z
		 M77.521,65.52c-1.179-0.571-2.403-1.121-3.6-1.68c-2.436-1.139-4.712-2.625-7.2-3.36c-1.078-0.318-2.893-0.417-4.32-0.48
		c-1.77-0.078-3.527,0.057-5.52,0c-0.284,0.116-0.544,0.256-0.72,0.48c-1.111,3.598-0.13,6.618-0.72,8.88
		c-0.074,0.285-0.532,0.85-0.72,1.2c-0.782,1.454-1.562,2.443-2.64,3.36c-0.777,0.661-1.603,1.036-2.4,1.44
		c-0.877,0.445-1.709,0.957-2.64,1.2c-1.033,0.271-2.333,0.092-3.6,0.48c-0.34,0.104-0.752,0.525-1.2,0.72
		c-0.813,0.354-1.488,0.691-1.92,0.96c-0.217,0.135-0.49,0.083-0.72,0.24c-0.355,0.242-0.612,0.737-0.96,0.96
		c-0.218,0.14-0.535,0.133-0.72,0.24c-0.484,0.28-0.841,0.497-1.2,0.72c-0.467,0.29-1.629,0.731-1.92,0.96
		c-1.431,1.128-0.355,2.836,0.72,3.6c2.319,0.556,3.12-1.675,5.04-0.72c0.247,1.127-1.121,0.639-0.96,1.68
		c-0.482,0.397-0.182,1.578-0.96,1.68c0.086,0.647,0.815,0.811,1.2,1.2c0.439,0.444,0.831,0.626,0.96,1.44
		c-0.507,1.165-1.854,1.782-1.92,3.12c-0.033,0.669,0.492,1.603,0.96,2.4c0.469,0.798,1.101,1.212,1.68,1.92
		c0.812,0.992,1.586,2.248,2.16,3.12c0.742,1.127,1.221,1.401,2.16,2.16c1.489,1.205,3.429,2.414,4.8,3.12
		c1.796-0.229,3.311-0.171,4.8-0.48c1.862-0.386,2.672-0.729,3.84-1.44c0.486-0.296,1.549-0.454,1.44-1.2
		c-0.557-1.507-1.443-2.834-2.16-4.32c-0.79-1.636-1.74-3.446-1.68-5.04c0.07-1.855,1.93-3.179,3.36-3.6
		c2.256-0.665,5.385,0.012,7.44-0.48c0.065-0.016,0.383-0.431,0.48-0.48c0.971-0.497,1.098-0.441,1.44-1.2
		c0.039-0.086,0.425-0.136,0.48-0.24c0.446-0.839,0.733-2.063,0.96-2.64c0.811-2.066,1.203-2.931,2.4-4.32
		c0.97-1.126,1.814-1.866,2.88-2.64c1.116-0.811,1.404-1.183,2.16-2.16c0.781-1.009,1.088-1.384,1.44-2.64
		c0.535-1.906,0.831-3.842,0.72-6.24C79.81,66.552,78.677,66.08,77.521,65.52z M142.561,77.52c-2.215-1.321-3.327-2.861-4.56-4.8
		c-3.802-1.285-7.116,0.477-11.28,0.24c-1.973-0.995-4.016-3.408-5.04-5.76c-0.224-0.512-0.269-1.366-0.48-1.68
		c-0.628-0.933-1.802-1.644-2.88-1.68c-1.358-0.045-1.92,1.085-3.6,1.2c-0.329,0.631-1.011,0.91-1.2,1.68
		c-0.42,0.62-1.239,0.841-1.44,1.68c0.519,1.14,1.751,2.125,1.921,3.6c0.242,2.117-1.166,4.176-1.44,6.72
		c-0.06,0.547,0.249,1.259,0.24,1.92c-0.012,0.811-0.297,1.481-0.24,2.16c0.119,1.419,0.743,2.74,0.96,4.08
		c0.539,3.338,0.255,6.224,0.48,9.36c2.392,0.625,4.42,0.94,6.239,1.68c0.842,0.342,1.631,0.732,2.4,1.2
		c3.257,1.979,5.35,3.705,5.04,8.64c1.749,1.851,3.805,0.693,6.479,0.479c1.858-0.148,3.858,0.279,5.521-0.24
		c1.111-1.479,0.254-3.439,1.92-4.32c1.579-0.836,3.063,0.176,5.04,0.48c0.181-2.05,0.764-3.63,0.72-5.52
		c-0.047-2.022-1.051-3.966-0.96-6c0.101-2.253,1.94-4.094,2.16-6.24c0.06-0.585-0.209-1.6-0.24-2.4
		c-0.101-2.587-0.263-3.964-0.96-5.52C145.073,79.042,143.857,78.293,142.561,77.52z M170.881,78.72
		c-0.038-0.083-0.423-0.143-0.48-0.24c-0.524-0.894-0.748-2.024-1.439-2.88c-1.384-1.712-3.583-2.583-6-3.36
		c-2.088-0.671-4.543-1.524-7.2-0.96c-0.68,0.145-1.262,0.687-1.681,0.96c-0.656,0.429-1.461,0.975-1.92,1.44
		c-0.253,0.257-0.406,0.66-0.72,0.96c-1.135,1.087-2.686,1.954-3.36,3.36c1.1,2.16,1.043,3.794,1.2,6.48
		c0.048,0.808,0.328,1.676,0.24,2.4c-0.225,1.846-1.724,3.338-1.92,5.04c-0.232,2.016,0.6,3.859,0.72,6
		c0.144,2.547-0.504,4.781-0.72,7.44c1.042,0.377,1.964,0.958,3.12,0.96c1.507,0.003,3.008-1.142,4.08-1.44
		c0.717-0.199,1.378-0.021,1.92-0.24c0.828-0.335,1.311-1.434,2.16-1.2c0.51-1.432,0.524-2.466,1.199-3.6
		c0.979-1.645,2.999-2.354,3.36-4.08c0.229-1.089-0.437-2.052-0.24-3.6c1.293-1.801,3.608-2.452,5.04-4.08
		c0.201-0.229,0.254-0.623,0.48-0.96c0.938-1.401,1.735-2.899,2.399-4.8c0.029-0.691,1.023-0.417,0.96-1.2
		C171.769,80.24,171.159,79.339,170.881,78.72z M67.681,90.96c-1.783,0.354-4.491-0.186-6.48,0.24c-0.983,0.21-2.5,0.867-2.88,1.44
		c-1.154,1.739,0.327,4.325,0.96,5.76c0.467,1.058,0.795,1.556,1.2,2.16c0.517,0.772,1.336,2.323,1.2,3.12
		c-0.213,1.248-2.336,2.348-4.08,2.88c-2.72,0.829-5.947,0.386-6,2.88c-0.023,1.104,1.438,1.744,1.68,3.12
		c0.533,3.038-1.377,3.993-2.16,6.24c0.774,1.101,2.184,1.385,3.12,2.16c1.918,1.588,2.923,3.798,3.6,6.48
		c1.096-0.215,1.36,0.4,2.16,0.48c0.544,0.557,1.046,1.212,1.92,1.68c0.595,0.318,1.487,0.33,2.16,0.72
		c0.441,0.255,0.786,0.924,1.2,1.2c0.11,0.073,0.358-0.056,0.48,0c0.086,0.039,0.135,0.426,0.24,0.48
		c1.736,0.9,2.229-0.28,3.36-1.44c1.074-1.102,2.113-2,2.88-2.88c0.304-0.349,0.441-0.851,0.72-1.2
		c0.629-0.788,1.368-1.44,1.92-2.16c0.156-0.203,0.101-0.537,0.24-0.72c0.116-0.152,0.341-0.312,0.48-0.48
		c1-1.218,1.624-2.054,2.64-3.36c1.384-1.78,2.951-3.56,3.12-4.8c0.164-1.201-0.595-2.444-0.48-3.6
		c0.233-2.333,1.798-3.338,2.64-4.56c0.723-0.316,1.481-0.599,1.68-1.44c-1.127-1.837-0.914-4.229-1.92-5.28
		c-0.158-0.166-0.084-0.281-0.24-0.48c-1.136-1.454-3.074-2.61-4.32-3.6c-1.399-1.111-3.284-1.608-4.8-2.64
		c-0.974-0.663-1.677-1.559-2.4-2.4c-0.422-0.378-0.314-1.285-0.72-1.68c-0.013-0.146-0.036-0.284-0.24-0.24
		C69.803,89.972,68.983,90.701,67.681,90.96z M128.16,127.44c-0.868-1.108-1.566-1.512-1.92-2.64
		c-0.312-0.994,0.022-2.067-0.239-3.12c-0.047-0.186-0.394-0.76-0.48-0.96c-0.165-0.381-0.347-0.665-0.48-0.96
		c-0.812-1.796-1.493-3.789-1.199-6.48c0.061-0.563,0.335-2.015,0.479-2.4c0.485-1.288,2.141-2.322,2.4-3.6
		c0.116-0.57,0.106-1.501,0-2.16c-0.119-0.735-0.726-2.06-0.96-2.4c-0.874-1.266-2.984-2.456-5.28-3.6
		c-2.112-1.052-4.843-2.043-7.2-1.92c-1.416,0.074-2.295,0.862-3.359,1.68c-2.081,1.597-3.173,3.916-5.04,5.28
		c-0.466,0.339-1.102,0.79-1.681,0.96c-1.5,0.44-3.159,0.083-5.04,0.24c-3.349,0.279-6.698,1.65-9.6,1.44
		c-0.973-0.07-1.742-0.417-2.64-0.48c-1.524,0.861-2.465,1.828-3.12,2.88c-0.392,0.63-0.869,1.309-0.96,2.16
		c-0.136,1.278,0.694,2.68,0.48,4.08c-0.032,0.211-0.306,0.881-0.48,1.2c-0.641,1.175-1.909,2.12-2.16,3.36
		c1.179,2.1,3.633,1.869,5.04,2.88c1.09,0.784,1.649,1.633,2.4,2.88c0.824,1.37,1.305,2.747,1.92,4.08
		c0.688,1.491,1.597,2.82,1.92,4.32c2.191,0.93,5.375,0.864,8.16,1.2c0.562-0.925,1.213-1.749,1.68-2.399
		c0.307-0.428,0.58-1.055,0.72-1.2c0.767-0.8,1.43-3.088,1.92-3.6c0.176-0.184,0.075-0.247,0.24-0.48
		c0.61-0.867,1.454-1.272,1.68-2.4c0.452-2.255-0.909-4.108-0.96-5.76c-0.071-2.304,1.25-4.905,0.96-6.96
		c-0.167-1.188-1.049-2.376-1.68-3.36c-0.684-1.066-2.086-2.045-1.44-3.36c0.723,0.3,1.018,1.274,1.2,1.68
		c0.035,0.078,0.421,0.151,0.48,0.24c0.073,0.11-0.056,0.357,0,0.479c0.035,0.079,0.421,0.15,0.479,0.24
		c0.704,1.071,1.301,2.166,1.68,3.36c0.606,1.906-0.228,4.236-0.479,6c-0.067,0.473-0.259,1.287-0.24,1.68
		c0.069,1.474,1.179,2.879,1.2,4.32c0.017,1.14-0.67,1.68-0.48,2.88c-0.649,0.495-1.198,1.383-1.439,1.92
		c-0.037,0.081-0.422,0.146-0.48,0.24c-0.72,1.161-0.973,2.708-1.68,3.84c-0.153,0.245-0.517,0.468-0.72,0.72
		c-0.777,0.959-1.371,1.863-1.92,2.88c0.571,0.875,1.23,1.975,1.68,3.12c0.477,1.213,0.336,2.915,1.68,3.36
		c2.892-0.41,3.461-6.402,6.721-6.48c1.7-0.04,3.346,1.625,3.359,4.32c1.449-0.491,1.691-2.621,2.4-3.36
		c0.14-0.146,0.098-0.314,0.24-0.479c1.121-1.306,2.934-1.077,4.8-0.48c2.218,0.709,4.4,2.454,5.04,4.32
		c1.052-0.452,1.895-1.355,2.64-2.16c1.599-1.726,3.165-3.971,4.08-6c0.029-0.065,0.421-0.169,0.48-0.24
		c0.588-0.706,1.176-1.399,1.439-2.16C133.079,128.441,130.601,127.96,128.16,127.44z M169.681,107.76
		c-0.066-0.766,0.398-1.443,0.24-2.16c-0.271-1.23-1.121-2.423-2.16-2.16c-1.399,0.354-3.461,0.789-4.8,1.68
		c-0.421,0.78-0.3,2.1-0.721,2.88c-1.015,1.225-1.994,2.486-4.319,2.4c-0.655,0.892-1.504,0.841-2.16,1.44
		c-0.89,0.811-1.519,2.161-2.16,3.36c-0.29,0.542-0.639,1.053-0.96,1.68c-0.521,1.016-0.669,1.572-1.44,1.92
		c-0.075,0.035-0.153,0.42-0.239,0.48c-0.762,0.528-2.136,1.089-2.881,1.2c-0.609,0.091-1.425-0.175-2.159,0
		c-0.623,0.148-2.356,0.928-2.641,1.2c-0.763,0.73-1.424,1.28-2.16,2.16c-0.456,0.546-0.956,1.049-1.199,1.44
		c-0.13,0.209-0.084,0.505-0.24,0.72c-0.477,0.658-1.145,1.262-1.68,1.92c-0.589,0.724-1.056,1.49-1.681,2.16
		c-0.599,0.642-1.386,1.092-1.92,1.68c-0.912,1.003-1.527,2.186-2.16,3.12c-0.561,0.828-1.182,1.497-1.68,2.159
		c-0.304,0.405-0.458,0.896-0.72,1.2c-1.159,1.341-2.679,1.993-3.36,3.601c0.784,1.179,1.863,3.236,2.64,4.319
		c0.15,0.209,0.325,0.754,0.48,0.96c1.547,2.064,3.706,1.958,6.96,1.2c0.869,0.397,1.571,1.036,2.4,1.2
		c0.426,0.084,1.067-0.238,1.68-0.24c2.31-0.006,4.314,0.601,6,1.2c0.229,0.082,0.921,0.442,0.96,0.48
		c0.823,0.789,1.85,1.796,3.12,1.68c1.257-0.115,2.019-1.384,2.399-2.4c-0.811-1.326-2.342-1.454-2.399-3.12
		c-0.038-1.079,0.944-1.882,1.92-3.119c0.757-0.96,1.444-2.233,2.16-2.881c0.172-0.155,0.737-0.32,0.96-0.479
		c1.094-0.785,2.058-1.363,3.12-1.92c1.56-0.817,3.422-1.295,3.84-2.641c-0.338-1.581-1.831-2.009-1.92-3.84
		c1.092-1.846,3.146-0.482,4.8-0.479c2.034,0.003,3.045-0.691,4.32-1.2c0.721-0.288,1.563-0.427,2.159-0.72
		c1.617-0.794,2.771-1.763,3.12-2.64c1.166-2.922-2.124-4.883-3.359-6.96c-0.618-1.038-1.307-2.287-1.2-3.6
		c0.145-1.778,1.747-2.222,1.92-3.6C171.877,111.555,169.857,109.79,169.681,107.76z M157.681,105.12
		c-0.447,0.212-0.953,0.55-1.44,0.72c-0.354,0.124-0.832-0.082-1.2,0c-0.091,0.021-0.593,0.436-0.72,0.48
		c-1.263,0.442-2.423,0.998-3.84,0.96c-3.586-0.095-5.499-4.321-8.88-2.4c-0.188,1.413-0.415,2.785-0.96,3.84
		c-1.757,0.863-4.35,0.28-6.72,0.48c-1.669,0.141-3.142,0.723-4.561,0.48c-0.969-0.167-1.523-0.977-2.399-0.96
		c-2.593,2.392-2.682,7.316-1.44,9.84c0.546,1.11,1.173,1.822,1.44,2.88c0.259,1.028-0.036,2.313,0.239,3.12
		c0.312,0.91,1.124,1.132,1.44,1.92c2.78,0.419,4.916,1.484,6.96,2.64c1.215-0.678,1.842-2.058,2.4-2.64
		c0.192-0.201,0.284-0.516,0.479-0.72c0.192-0.202,0.284-0.516,0.48-0.72c0.192-0.201,0.284-0.516,0.479-0.72
		c0.821-0.856,1.605-1.974,2.64-2.88c1.185-1.037,3.067-1.932,4.801-2.16c1.356-0.178,2.533-0.027,3.12-0.48
		c0.831-0.641,1.058-1.134,1.439-1.92c0.091-0.187,0.368-0.474,0.48-0.72c0.301-0.659,0.437-1.427,0.72-1.92
		c0.054-0.094,0.405-0.14,0.479-0.24c0.153-0.204,0.107-0.538,0.24-0.72c0.083-0.113,0.39-0.12,0.48-0.24
		c0.157-0.21,0.095-0.533,0.239-0.72c0.491-0.632,1.099-1.126,1.681-1.92c0.734-0.146,1.25-0.509,1.92-0.72
		c-0.192-2.193,1.953-2.047,1.92-4.08c-0.346-0.134-0.586-0.375-0.72-0.72C158.463,104.385,158.044,104.947,157.681,105.12z
		 M64.561,175.2c0.207-0.492,0.289-1.109,0.48-1.68c0.353-1.055,1.054-2.285,1.2-3.12c0.457-2.604-0.707-3.187-1.68-4.32
		c-1.431-1.665-1.59-1.806-0.96-4.079c0.478-1.726,0.887-2.619,1.92-3.36c0.366-0.263,0.935-0.225,1.44-0.48
		c0.128-0.064,0.335-0.396,0.48-0.479c1.212-0.707,3.189-1.01,4.32-1.2c0.491-0.083,1.33,0.096,1.92,0
		c0.544-0.088,1.379-0.604,1.68-0.72c1.659-0.643,2.753-1.067,3.84-1.92c1.782-1.398,2.361-2.867,3.12-5.04
		c0.246-0.702,0.435-1.754,0.72-2.4c0.19-0.432,0.714-0.748,0.96-1.2c0.112-0.206,0.185-0.604,0.24-0.72
		c0.409-0.857,0.759-1.398,1.2-2.16c0.255-0.439,0.454-1.009,0.72-1.439c0.241-0.391,0.706-0.769,0.96-1.2
		c0.268-0.456,0.462-0.988,0.72-1.44c0.637-1.117,2.003-2.827,1.44-3.84c-0.296-0.776,0.777-0.184,0.48-0.96
		c-2.647-3.993-2.998-10.283-8.88-11.04c-0.594-0.686-1.241-1.318-2.16-1.68c-1.539,2.044-3.026,4.366-5.28,6.96
		c-0.804,0.925-1.685,1.803-2.64,2.88c-1.141,1.285-1.973,2.481-3.12,2.64c-1.907,0.264-2.382-0.575-3.84-1.439
		c-0.976-0.579-2.066-0.969-2.88-1.44c-0.977-0.565-1.628-1.57-2.64-1.68c-0.473,0.167,0.059,1.339-0.48,1.44
		c-1.938-1.902-2.936-4.745-6-5.52c-0.472,5.048-1.505,9.534-1.68,14.88c0.763,0.677,2.309,0.571,2.4,1.92
		c-0.289,1.231-1.334,1.705-2.4,2.16c0.014,2.968-1.802,6.019-2.4,8.4c-0.276,1.1-0.293,2.184-0.48,3.359
		c-0.494,3.118-1.339,6.216-2.4,8.641c-0.186,0.424-0.503,0.746-0.72,1.199c-0.22,0.46-0.215,1.033-0.48,1.44
		c-0.687,1.054-2.05,1.721-2.4,2.88c1.631,0.75,3.811,0.293,4.32,2.16c0.376,1.381-0.365,2.244-0.96,3.6
		c1.913,0.417,3.381,0.853,4.56,1.44c0.519,0.259,0.919,0.477,1.44,0.72c0.988,0.461,2.213,0.734,3.12,1.2
		c0.779,0.4,1.422,1.029,2.16,1.44c1.78,0.991,3.309,1.626,5.76,0.96C62.253,178.849,63.677,177.3,64.561,175.2z M169.921,134.16
		c-0.668-0.529-1.15-1.271-1.681-1.439c-0.32-0.103-0.94,0.029-1.68,0c-0.318-0.013-0.536-0.24-0.72-0.24
		c-0.314,0-0.323,0.279-0.721,0.24c-1.246-0.125-2.742-0.918-3.359-0.24c0.212,1.847,2.288,1.984,1.92,4.08
		c-0.227,1.291-3.734,2.634-5.04,3.36c-0.354,0.196-0.911,0.292-1.2,0.479c-0.105,0.068-0.129,0.397-0.24,0.48
		c-0.203,0.152-0.537,0.106-0.72,0.239c-0.113,0.083-0.12,0.391-0.24,0.48c-0.223,0.167-0.528,0.066-0.72,0.24
		c-0.377,0.342-0.654,0.825-0.96,1.199c-0.753,0.921-2.94,3.103-2.88,4.08c0.096,1.561,2.304,1.725,2.399,3.12
		c0.063,0.916-1.152,2.053-1.439,2.4c-0.15,0.182-0.294,0.342-0.48,0.479c-2.382,1.762-4.145-1.028-5.52-1.68
		c-0.49-0.231-1.354-0.325-1.92-0.479c-1.689-0.461-3.473-0.603-5.521-0.48c0.617,1.659,1.937,2.211,2.16,3.84
		c0.029,0.211-0.217,0.848-0.24,1.2c-0.146,2.279-0.438,2.891-1.199,4.32c-1.439,2.701-4.321,4.646-5.521,6.96
		c2.219-0.019,4.167,2.092,5.76,2.399c1.813,0.352,3.648-0.39,5.28-0.239c4.013,0.369,6.112,3.657,9.84,4.079
		c0.287-1.259-0.096-2.579,0-3.84c0.07-0.92,0.512-2.014,0.721-3.12c0.224-1.19,0.141-2.656,0.479-3.359
		c0.823-1.711,2.603-1.899,4.8-2.16c2.494-0.296,4.986-0.023,7.2-0.48c0.944-0.575,1.187-1.853,1.92-2.64
		c0.482-0.558,1.836-0.244,1.92-1.2c-0.27-1.026-1.057-1.546-1.439-2.16c-0.146-0.232-0.119-0.524-0.24-0.72
		c-0.09-0.145-0.387-0.315-0.48-0.479c-0.867-1.524-0.118-3.064,0.721-4.32c0.548-0.821,1.63-1.385,1.92-2.4
		c-1.442-2.3-0.57-4.707,0.479-6c0.588-0.724,1.443-0.963,1.681-1.68C174.072,136.644,171.511,135.423,169.921,134.16z
		 M90.48,135.12c-0.058,0.343-0.395,0.405-0.48,0.721c-0.277,1.057-0.911,1.919-1.44,2.88c-0.617,1.119-1.358,2.671-1.92,3.359
		c-0.623,0.764-0.762,1.341-1.2,2.16c-0.52,0.974-1.25,1.857-1.68,2.88c-0.33,0.785-0.419,1.818-0.72,2.641
		c-0.284,0.773-0.557,1.713-0.96,2.399c-1.392,2.37-5.569,4.908-8.4,5.28c-0.662,0.087-1.263-0.11-1.92,0
		c-2.318,0.389-4.661,1.424-6.72,2.88c-0.305,1.135-0.655,2.226-0.96,3.36c1.451,2.367,3.514,2.849,3.12,6.479
		c-0.197,1.819-1.138,3.733-1.92,5.521c-0.879,2.01-1.874,3.805-2.64,5.04c1.335,1.509,3.667,2.508,6.24,3.12
		c2.551,0.606,5.722,1.126,8.4,0.239c0.881-0.479,0.333-2.387,1.2-2.88c2.721-0.396,6.22,0.81,7.92,1.681
		c0.332,0.169,0.651,0.053,0.96,0.239c1.208,0.732,1.828,2.221,3.12,2.641c0.792,0.257,1.654-0.122,2.4,0
		c1.005,0.163,1.337,0.784,2.4,0.96c1.116-0.965,3.142-1.019,4.56-1.681c-0.31-1.449-2.807-0.713-2.88-2.399
		c-0.111-1.392,0.869-1.691,0.72-3.12c-0.576-1-1.069-2.057-1.68-3.12c-0.629-1.094-1.411-2.063-1.68-3.12
		c-0.115-0.452-0.296-1.429-0.24-1.92c0.108-0.945,0.851-2.362,2.16-2.88c2.755-1.09,4.832,0.89,7.44,0.48
		c0.78-0.123,2.808-1.35,3.12-1.681c0.911-0.965,0.699-2.218,1.68-3.12c0.88-0.81,2.261-1.153,3.84-0.96
		c0.632-0.888,1.446-1.593,1.92-2.64c0.916-0.5,1.938-1.175,2.641-1.92c0.732-0.777,1.588-1.744,1.68-2.88
		c0.04-0.502-0.27-0.98-0.48-1.681c-0.187-0.621-0.237-1.408-0.479-1.92c-0.377-0.793-1.179-1.354-1.68-2.159
		c-0.495-0.796-0.74-1.793-1.2-2.641c-0.441-0.813-1.065-1.514-1.44-2.399c-0.176-0.416-0.277-0.932-0.479-1.44
		c-0.178-0.447-0.395-1.024-0.48-1.44c-0.208-1.007,0.191-1.895,0-2.64c-0.135-0.526-0.672-0.89-0.96-1.2
		c-2.228-2.4-3.479,1.075-4.56,2.641c-0.896,1.297-2.346,3.231-4.08,2.88c-1.48-0.301-1.577-2.479-2.16-3.84
		c-0.122-0.285-0.376-0.488-0.48-0.721c-0.32-0.718-0.349-1.45-0.72-1.92c-0.053-0.067-0.396,0.038-0.48,0
		c-0.392-0.177-0.438-1.232-0.96-1.2C94.935,136.266,92.673,135.727,90.48,135.12z M137.761,161.28
		c0.986-1.123,1.453-1.706,1.92-3.12c0.119-0.361,0.401-0.832,0.479-1.199c0.561-2.638,0.094-3.188-0.96-4.801
		c-0.429-0.656-0.823-1.609-1.199-1.92c-0.565-0.466-1.573-0.29-1.921-0.96c-2.282,0.276-4.007,0.674-5.52,0
		c-1.338-0.596-2.347-2.636-3.36-4.319c-0.45-0.75-0.996-1.608-1.439-2.4c-0.927-1.655-1.268-3.113-2.88-3.84
		c-0.074-0.033-0.157-0.421-0.24-0.48c-1.23-0.884-4.587-2.15-5.521-0.96c-0.442,0.213-0.696,0.765-0.96,1.2
		c-0.257,0.426-0.449,1.031-0.72,1.44c-0.228,0.344-0.735,0.642-0.96,0.96c-0.149,0.211-0.113,0.534-0.24,0.72
		c-0.142,0.207-0.611,0.227-0.479,0.72c0.783,2.524,2.093,5.006,3.359,6.96c1.002,1.544,1.604,2.507,2.16,4.32
		c0.506,1.648,0.565,2.406,0,3.6c-0.626,1.322-1.122,1.992-2.16,2.88c-0.611,0.523-1.58,0.853-2.159,1.44
		c-0.923,0.936-1.014,2.129-2.16,2.64c-1.101,0.18-2.362,0.198-3.36,0.48c-0.371,0.633-0.696,1.176-0.96,1.68
		c-0.352,0.674-0.494,1.454-0.96,1.92c-0.421,0.422-1.396,0.866-2.16,1.2c-0.812,0.354-1.693,0.7-2.64,0.72
		c-2.057,0.044-3.85-1.529-5.76-0.96c-0.573,0.171-1.61,1.445-1.68,1.681c-0.553,1.854,0.64,3.091,1.44,4.56
		c0.323,0.594,0.608,1.285,0.96,1.92c0.464,0.838,0.899,1.409,0.96,2.16c0.105,1.293-0.731,1.448-0.48,3.12
		c0.665,0.935,2.745,0.455,2.88,1.92c-0.516,2.444-4.335,1.585-5.52,3.36c0.446,0.731,1.4,0.81,2.16,1.199
		c1.3,0.669,2.182,1.301,3.84,1.44c1.146,0.097,2.687,0.267,3.84,0.24c3.384-0.079,6.921-1.513,10.08-1.44
		c-0.146-1.095-0.753-2.058-0.96-3.12c-0.67-3.432,0.029-8.141,1.2-10.319c1.102-2.051,2.979-3.551,4.56-4.801
		c2.031-1.605,5.313-4.176,7.44-4.56c1.806-0.325,3.749,0.253,5.28,0C134.223,165.196,136.397,162.832,137.761,161.28z
		 M178.08,150.96c-0.474-0.454-1.504-0.792-1.68-0.96c-0.969-0.929-2.425-1.901-3.36-2.4c-1.113,0.886-1.702,2.298-2.399,3.6
		c0.765,2.516,3.149,3.411,3.12,6.721c-0.821,0.412-1.487-0.265-2.4,0.239c-1.057,1.057-1.011,2.542-2.64,3.12
		c-0.426,0.151-1.555,0.168-2.4,0.24c-2.68,0.23-5.676,0.262-7.92,0.72c-0.909,0.918-1.24,2.204-1.439,3.601
		c-0.361,2.524-0.6,5.203-0.721,7.439c4.188,1.541,9.542,0.174,12.96-1.2c0.564-0.716,0.901-1.659,1.2-2.64
		c1.098-1.077,2.798-1.565,3.84-2.64c0.759-0.782,1.166-2.139,1.92-3.12c0.155-0.202,0.551-0.282,0.721-0.48
		c0.229-0.267,0.259-0.685,0.479-0.96c0.162-0.202,0.556-0.273,0.72-0.479c0.226-0.283,0.271-0.74,0.48-0.96
		c0.688-0.725,1.729-1.271,2.16-1.92c0.165-0.249,0.298-0.281,0.479-0.48c0.766-0.837,0.934-1.263,1.44-2.16
		c0.722-1.279,1.637-2.577,1.68-4.08C181.943,152.064,179.377,152.203,178.08,150.96z"/>
	<path fill-rule="evenodd" clip-rule="evenodd" fill="#0393F1" d="M107.28,7.68c0.573,0.994-0.37,2.088,0.24,3.12
		c1.119,2.481,6.139,1.062,7.92,2.88c0.316,0.724,0.775,1.305,0.72,2.4c0.62,0.583,1.326,0.899,2.16,1.44
		c0.19,0.123,0.331,0.389,0.48,0.48c0.486,0.298,1.104,0.374,1.68,0.72c0.4,0.241,0.762,0.701,1.2,0.96
		c0.518,0.306,1.107,0.386,1.68,0.72c0.372,0.217,0.777,0.694,1.2,0.96c1.241,0.781,2.188,1.204,2.88,2.4
		c0.15,0.259,0.604,0.745,0.72,1.2c0.293,1.151-0.367,2.537,0.48,3.84c-1.563,0.169-3.06-0.361-4.8-0.48
		c-3.776-0.257-7.696,0.278-11.28-0.24c-0.921-0.133-1.947-0.483-2.88-0.72c-1.079-0.274-2.26-0.418-2.88-0.72
		c-1.071-0.521-1.552-1.465-2.4-2.16c-1.384-0.185-2.457-0.085-3.6-0.48c-1.165-0.402-2.062-1.559-3.12-1.92
		c-1.241-0.423-2.501,0.022-3.84-0.72c0.555-3.099-0.065-7.348,0.24-10.08c0.3-0.89,1.556-1.083,2.4-1.44
		c1.639-0.692,3.332-1.348,5.28-1.92C103.526,7.401,105.297,6.75,107.28,7.68z"/>
	<path fill-rule="evenodd" clip-rule="evenodd" fill="#0393F1" d="M129.841,30c0.538,2.461-0.275,4.345-1.2,6.24
		c-0.711,1.455-1.404,3.545-2.16,5.521c-1.922-0.242-2.969,0.391-3.84,1.2c-0.534,2.059-0.23,4.303-0.72,6.24
		c-0.383,1.513-1.306,2.489-1.92,3.6c-0.995-0.28-1.306-1.492-2.16-2.16c-0.199-0.156-0.314-0.082-0.48-0.24
		c-0.162-0.155-0.67-0.395-1.2-0.72c-1.319-0.809-4.668-1.27-6.96-1.68c-2.716-0.487-7.376-1.583-10.32-1.68
		c-1.02-0.033-2.143,0.271-3.12,0c-0.741-1.104-0.465-2.604-0.48-4.08c-0.015-1.45-0.067-3.03,0-4.56
		c0.085-1.935,0.453-3.541,0-5.04c-0.672-2.226-2.571-2.948-4.32-4.56c0.42-0.872,0.986-1.494,1.44-2.4
		c0.508-1.015,0.854-2.101,1.2-3.36c4.366,0.114,5.93,3.03,10.32,3.12c0.728,0.597,1.194,1.687,2.159,2.16
		c0.646,0.316,1.773,0.184,2.881,0.48c0.781,0.208,1.684,0.822,2.399,0.96c2.985,0.576,7.464,0.023,11.28,0.24
		C125.206,29.426,127.649,29.847,129.841,30z"/>
	<path fill-rule="evenodd" clip-rule="evenodd" fill="#0393F1" d="M137.28,26.88c0.396,3.488,1,5.708,3.12,7.44
		c0.57,0.466,1.593,0.932,2.4,1.44c0.719,0.453,1.866,0.747,2.16,1.68c-0.778,0.798-1.194,0.509-2.641,0.48
		c-1.131,2.466-1.087,4.95-1.439,7.92c-0.315,2.652-1.338,5.648-0.721,8.16c0.307,1.245,1.489,2.247,2.4,3.36
		c1.13,1.38,3.682,3.486,4.56,4.56c0.161,0.197,0.094,0.528,0.24,0.72c0.142,0.185,0.328,0.258,0.48,0.48
		c0.67,0.978,1.525,2.159,2.16,3.36c0.209,0.397,0.508,0.676,0.72,1.2c0.162,0.402,0.045,0.906,0.24,1.44
		c0.358,0.98,1.015,1.93,0.96,2.64c-0.096,1.228-1.376,2.147-2.641,3.36c-1.755,1.684-2.996,3.208-6,1.68
		c-1.151-0.586-1.797-1.152-2.64-2.16c-0.595-0.712-1.067-1.683-1.68-2.64c-1.914-0.636-3.522-1.075-5.521-0.96
		c-2.005,0.115-3.854,1.174-5.52,0.96c-0.57-0.073-1.553-0.471-1.92-0.72c-0.469-0.316-0.729-0.886-1.2-1.44
		c-0.319-0.374-0.97-0.841-1.2-1.2c-0.325-0.506-0.439-1.321-0.72-1.92c-0.11-0.236-0.356-0.432-0.48-0.72
		c-0.207-0.484-0.333-0.987-0.72-1.44c-0.716-0.838-1.67-1.353-2.4-2.16c-0.106-0.986,1.012-1.789,1.2-2.88
		c0.302-1.75-0.26-3.333-0.72-4.8c0.182-0.989,0.858-1.534,1.439-2.4c0.433-0.643,1.159-1.318,1.44-2.16
		c0.771-2.313-0.282-5.316,1.439-7.2c0.899-0.646,2.175,0.287,2.881-0.24c1.206-1.139,1.06-2.977,1.68-4.56
		c0.427-1.091,1.286-2.042,1.68-3.12c0.412-1.125,0.75-3.002,0.48-4.8C134.068,30.228,134.924,27.803,137.28,26.88z"/>
	<path fill-rule="evenodd" clip-rule="evenodd" fill="#0393F1" d="M97.681,64.32c0.61,0.35,0.464,1.456,1.2,1.68
		c2.56,0.212,5.513-1.423,6.96,0.48c0.218,1.144-0.996,1.709-0.24,2.64c1.352,0.625,3.493-0.022,4.56-0.48
		c0.938,0.022,0.95,0.97,1.44,1.44c0.97-0.089,0.939,0.821,1.439,1.2c0.455,2.324-0.916,4.215-1.199,6.24
		c-0.108,0.771,0.053,1.553,0,2.4c-0.044,0.709-0.257,1.465-0.24,2.16c0.069,2.96,1.333,5.97,1.439,9.12
		c0.056,1.621-0.379,3.144,0,4.8c-1.17,0.514-1.891,1.065-2.88,1.68c-0.365,0.227-0.726,0.405-1.199,0.72
		c-0.795,0.527-2.014,1.848-2.881,2.88c-0.257,0.307-0.23,0.669-0.479,0.96c-0.182,0.212-0.52,0.285-0.72,0.48
		c-0.339,0.33-0.803,1.022-1.2,1.2c-1.163,0.521-2.786,0.146-4.56,0.24c-2.025,0.107-4.993,0.807-7.2,1.2
		c-1.959,0.349-3.678,0.631-5.76-0.24c-0.785-1.518-0.639-2.981-1.2-4.32c-0.394-0.938-1.153-1.828-1.92-2.64
		c-1.361-1.439-2.635-2.339-4.32-3.6c-0.147-0.11-0.363-0.412-0.48-0.48c-0.972-0.562-2.144-0.643-3.12-1.2
		c-0.222-0.126-0.491-0.564-0.72-0.72c-0.578-0.394-1.527-0.886-1.92-1.68c-0.622-0.308,0.185-1.435-0.24-1.44
		c0.013-0.733-0.864-0.576-0.72-1.44c-0.235-0.827,0.445-1.456,0.72-2.16c0.735-1.884,1.599-3.671,3.12-5.04
		c1.157-1.041,2.387-1.289,3.36-2.4c1.005-1.147,1.881-2.611,2.4-4.56c0.179-0.673,0.414-1.581,0.48-2.16
		c0.18-1.57-0.4-2.913,0.24-4.8c0.386-1.136,2.042-1.903,2.16-3.6c0.082-1.175-1.056-2.409-0.96-3.6
		c0.11-1.364,1.701-2.841,3.12-3.12c0.908-0.179,1.955,0.11,2.88-0.24c1.828-0.691,2.298-1.928,2.88-3.84
		c-0.07-0.571-0.649,0.267-0.72,0.48c-0.607,0.867-0.978,1.94-1.92,2.4c-1.178,0.575-3.145,0.216-4.32,0.72
		c-1.253,0.537-2.785,1.702-2.88,3.6c-0.069,1.375,1.024,2.223,0.96,3.36c-0.093,1.661-1.331,1.828-2.16,3.6
		c-0.946,0.066-0.734-1.026-1.68-0.96c-2.009-0.909-4.119-1.828-6.24-2.88c-1.976-0.98-3.828-2.203-6-2.88
		c-1.024-0.319-3.187-0.169-4.8-0.24c-1.426-0.063-2.857-0.315-4.32-0.24c-3.342,0.173-7.029,1.582-8.4-1.2
		c-0.196-1.076,1.812,0.052,1.68-0.96c0.307-0.947-0.699-0.581-0.72-1.2c-0.851-2.925-0.127-8.25-1.2-11.04
		c-0.347-0.901-1.007-1.591-1.44-2.4c-0.23-0.43-0.243-0.967-0.48-1.44c-0.158-0.316-0.606-0.656-0.72-0.96
		c-0.363-0.969-0.268-1.901-0.48-2.88c-0.178-0.819-0.835-1.495-0.48-2.4c2.401,0.608,4.787-0.141,7.44,0
		c0.059,1.894-0.266,4.023,0.72,5.52c0.202,0.307,0.395,0.447,0.72,0.72c1.017,0.853,1.808,0.902,4.08,1.44
		c1.981,0.47,4.112,1.071,6.72,1.44c2.269,0.321,4.371,0.705,6.24,0c1.762-0.664,2.683-2.203,3.6-3.12
		c-0.305-0.975-2.025-0.535-2.4-1.44c0.173-1.085,0.334-2.13,0.96-2.88c0.059-0.071,0.45-0.174,0.48-0.24
		c0.228-0.506,0.684-0.942,1.44-1.44c0.52-0.343,0.925-0.504,1.44-0.72c1.119-0.469,2.266-0.576,3.6-0.96
		c1.083-0.312,2.221-0.808,3.36-1.2c2.24-0.771,4.037-1.497,5.76-2.88c0.059-0.26,0.477-0.163,0.479-0.48
		c0.668,0.315,1.418,1.423,2.16,2.16c0.15,0.149,0.555,0.114,0.72,0.24c0.198,0.151,1.01,1.243,1.2,1.68
		c0.981,2.259-0.174,6.864,0,10.8c0.042,0.944,0.344,1.827,0.24,2.4c-0.342,1.894-2.593,2.42-2.88,4.08
		c-0.18,1.039,0.715,2.601,1.2,4.08C94.194,57.764,95.131,61.484,97.681,64.32z"/>
	<path fill-rule="evenodd" clip-rule="evenodd" fill="#0393F1" d="M177.12,47.04c-0.35,2.124-1.301,2.418-3.119,2.4
		c-1.602-0.016-2.941-1.285-4.08-0.96c-1.156,0.33-1.428,1.295-1.44,2.16c-0.035,2.354,2.734,2.741,3.6,4.08
		c0.186,1.333-1.035,2.468-1.199,3.84c-0.198,1.647,0.421,3.367,0.239,5.04c-0.092,0.845-0.483,1.83-0.72,2.64
		c-0.652,2.238-1.503,4.741-2.399,6.96c-2.899-1.375-7.888-3.758-12.48-2.88c-1.004,0.192-1.604,0.972-2.64,1.2
		c-0.441-2.662-1.482-4.765-2.641-6.72c-0.106-0.18-0.1-0.511-0.239-0.72c-0.237-0.352-0.708-0.601-0.961-0.96
		c-0.161-0.23-0.08-0.511-0.239-0.72c-0.199-0.26-0.662-0.57-0.96-0.96c-0.502-0.656-1.136-1.675-1.92-2.4
		c-0.497-0.458-0.975-0.498-1.44-1.2c-0.812-1.223-2.648-2.357-3.36-4.08c0.201-5.16,0.754-9.967,1.681-14.4
		c0.029-1.226,1.361,0.241,1.68-0.48c0.632-0.248,0.809-0.952,1.44-1.2c0.796-0.146,1.871,0.882,2.88,1.2
		c2.143,0.676,4.728,0.567,6.96,0.96c0.963,0.17,1.906,0.633,2.88,0.96c1.082,0.364,2.258,0.523,2.88,0.96
		c1.292,0.906,1.632,2.415,2.88,3.36c2.711-0.932,3.526,2.029,5.28,2.16c1.171,0.087,1.979-1.276,3.359-1.44
		C174.754,45.637,175.362,46.2,177.12,47.04z"/>
	<path fill-rule="evenodd" clip-rule="evenodd" fill="#0393F1" d="M107.28,48.72c-0.625,1.184-0.813,2.085-1.92,2.88
		c-0.244,0.175-0.806,0.34-0.96,0.48c-0.415,0.378-0.582,1.059-0.96,1.44c-0.42,0.424-0.823,0.548-1.2,0.96
		c-0.874-0.074-1.562,0.038-2.16,0.24c-1.49,1.585-0.023,3.428,2.16,3.36c0.877,1.124,2.763,1.237,3.84,2.16
		c-0.117,1.723-0.728,2.953-1.199,4.32c-2.219-0.059-3.798,0.522-5.521,0.96c-0.322-0.478-0.458-1.143-0.72-1.68
		c-1.663-1.278-2.943-4.839-4.08-7.44c-0.364-0.832-0.389-1.316-0.72-2.64c-0.208-0.833-1.309-2.88-1.2-3.84
		c0.156-1.377,1.703-2.001,2.16-3.12C98.48,47.087,103.952,47.317,107.28,48.72z"/>
	<path fill-rule="evenodd" clip-rule="evenodd" fill="#0393F1" d="M184.561,48.72c-0.133,0.778-0.336,1.441-0.72,2.16
		c-0.121,0.226-0.286,0.691-0.48,0.96c-0.138,0.192-0.604,0.286-0.72,0.48c-0.33,0.555-0.617,1.279-0.96,1.92
		c-0.304,0.568-0.798,1.187-0.96,1.68c-0.45,1.364-0.141,3.015-0.48,4.56c-0.105,0.483-0.536,1.167-0.72,1.68
		c-0.526,1.465-1.448,3.356-1.68,5.04c-0.407,2.958,0.377,6.238,0,8.88c-0.378,2.643-1.621,4.389-4.32,5.28
		c-0.63,0.101-0.564-0.649-0.72-0.96c-0.419-0.834-1.112-1.678-1.681-2.64c-0.384-0.65-0.563-1.523-0.96-2.16
		c-0.407-0.653-1.142-0.889-1.199-1.68c0.729-1.379,1.341-3.182,1.92-5.04c0.517-1.658,1.277-3.439,1.439-5.28
		c0.144-1.626-0.402-3.306-0.24-4.8c0.139-1.268,1.31-2.625,1.2-3.84c-0.271-3.005-4.824-2.056-3.6-5.28
		c1.09-0.621,2.489,0.618,3.84,0.72c0.992,0.075,2.447-0.073,3.12-0.48c0.877-0.53,0.855-1.271,1.439-2.4
		C180.234,47.926,182.672,48.049,184.561,48.72z"/>
	<path fill-rule="evenodd" clip-rule="evenodd" fill="#0393F1" d="M107.761,48.72c1.059,0.039,2.758,0.461,4.08,0.72
		c1.274,0.249,2.72,0.31,3.6,0.72c0.35,0.163,0.609,0.701,0.96,0.96c0.222,0.164,0.529,0.062,0.72,0.24
		c0.513,0.477,1.255,1.467,1.92,2.16c-0.142,2.096,0.751,3.945,0.48,5.76c-0.21,1.406-1.282,2.346-1.44,3.6
		c-1.166,0.573-2.619,0.615-3.6,1.2c-1.249,0.745-1.786,2.026-2.64,3.12c-1.777,0.462-3.129,1.351-5.521,1.2
		c0.817-1.422,0.131-2.433-0.479-3.6c0.345-1.575,1.193-2.646,1.199-4.56c1.106-0.493,2.604-0.596,2.881-1.92
		c0.244-1.044-0.497-1.104-0.721-1.68c0.014-0.787,0.683-0.917,0.48-1.92c-0.048-0.807-0.923-1.092-1.44-1.44
		c-0.536-0.361-1.205-0.878-1.92-0.96C106.789,51.108,107.822,50.462,107.761,48.72z"/>
	<path fill-rule="evenodd" clip-rule="evenodd" fill="#0393F1" d="M37.201,56.4c1.004-0.085,1.562,0.816,2.64,0.96
		c1.84,0.247,3.51-0.481,4.8-1.2c0.244,1.355,1.973,1.227,3.6,1.2c0.64,2.72,3.361,3.359,6.96,3.12
		c-0.556,1.727-0.28,4.415-0.48,6.96c-0.127,1.617-0.731,3.12-1.68,4.32c-0.491,0.621-1.427,1.555-1.92,1.92
		c-0.41,0.303-1.134,0.43-1.68,0.72c-0.901,0.479-1.338,0.885-2.4,1.2c-1.097,0.325-3.052,0.511-4.32,0.96
		c-2.345,0.83-4.581,2.555-6.72,3.84c-1.727-0.354-3.948-0.212-5.76-0.48c-0.693-0.722,0.572-0.837,0.24-1.92
		c-1.951-1.91-3.289,0.786-5.76,0.48c-0.198-0.842-0.636-1.444-0.72-2.4c-1.261-1.19-3.033-1.744-4.8-2.64
		c-0.51-0.258-0.92-0.75-1.44-0.96c-0.807-0.327-1.81-0.332-2.64-0.72c-0.714-0.335-1.146-0.931-1.92-1.2
		c-1.34-0.14-1.136,1.264-2.16,1.44c-0.965,0.165-1.37-0.23-2.16-0.24c-0.382-0.785-0.94-1.316-1.44-2.16
		c-0.071-0.121-0.128-0.6-0.24-0.72c-0.831-0.886-2.384-0.914-2.88-2.16c2.048-0.512,5.322,0.202,5.52-2.16
		c-0.035-1.012-1.081-0.893-1.92-1.2C7.232,63.108,6.085,63.268,6,62.4c1.402-0.518,3.852,0.012,4.32-1.44
		c-0.602-2.438-4.475-1.605-6.96-2.16c0.167-1.192,0.65-2.07,1.2-2.88c1.07-0.025,1.783-0.018,2.64-0.24
		c1.392-0.36,2.608-1.691,4.32-1.92c2.893-0.387,5.107,1.833,7.68,0.96c1.296-0.44,1.754-1.718,2.64-2.64
		c1.39-0.45,3.099-0.581,5.04-0.48c1.166,0.674,2.273,1.739,3.36,3.36c1.024,1.528,1.586,3.664,2.88,3.84
		C35.078,59.067,35.256,56.822,37.201,56.4z"/>
	<path fill-rule="evenodd" clip-rule="evenodd" fill="#0393F1" d="M108.721,54.72c0.155,0.955-0.636,0.965-0.48,1.92
		c-0.393,0.972,1.271,1.104,0.48,1.68c-0.195,0.789-1.169,0.936-1.681,0.96c-0.993,0.048-2.171-0.903-3.359-1.44
		c-1.309-0.591-2.514-0.906-3.36-1.44c0.246-0.954,1.048-1.352,2.4-1.2c1.098-0.342,1.5-1.38,2.16-2.16
		C106.608,53.152,107.404,54.196,108.721,54.72z"/>
	<path fill-rule="evenodd" clip-rule="evenodd" fill="#0393F1" d="M80.641,67.44c0.111,2.398-0.185,4.334-0.72,6.24
		c-0.352,1.255-0.659,1.63-1.44,2.64c-0.756,0.977-1.044,1.35-2.16,2.16c-1.065,0.774-1.91,1.514-2.88,2.64
		c-1.197,1.389-1.589,2.254-2.4,4.32c-0.227,0.578-0.514,1.801-0.96,2.64c-0.055,0.104-0.441,0.154-0.48,0.24
		c-0.342,0.759-0.469,0.703-1.44,1.2c-0.097,0.049-0.415,0.464-0.48,0.48c-2.055,0.492-5.184-0.185-7.44,0.48
		c-1.43,0.421-3.29,1.745-3.36,3.6c-0.06,1.594,0.891,3.404,1.68,5.04c0.717,1.485,1.604,2.813,2.16,4.32
		c0.109,0.747-0.954,0.904-1.44,1.2c-1.168,0.711-1.978,1.054-3.84,1.44c-1.489,0.309-3.004,0.251-4.8,0.48
		c-1.372-0.706-3.311-1.916-4.8-3.12c-0.938-0.759-1.418-1.033-2.16-2.16c-0.574-0.872-1.348-2.128-2.16-3.12
		c-0.58-0.708-1.211-1.122-1.68-1.92c-0.468-0.797-0.993-1.73-0.96-2.4c0.066-1.337,1.413-1.955,1.92-3.12
		c-0.129-0.814-0.521-0.996-0.96-1.44c-0.385-0.389-1.114-0.552-1.2-1.2c0.778-0.102,0.478-1.283,0.96-1.68
		c-0.161-1.041,1.207-0.553,0.96-1.68c-1.92-0.955-2.721,1.275-5.04,0.72c-1.076-0.764-2.151-2.472-0.72-3.6
		c0.291-0.229,1.454-0.67,1.92-0.96c0.358-0.223,0.716-0.44,1.2-0.72c0.185-0.107,0.502-0.1,0.72-0.24
		c0.348-0.223,0.604-0.718,0.96-0.96c0.23-0.156,0.503-0.105,0.72-0.24c0.433-0.269,1.108-0.605,1.92-0.96
		c0.447-0.195,0.86-0.616,1.2-0.72c1.267-0.388,2.567-0.209,3.6-0.48c0.931-0.244,1.763-0.755,2.64-1.2
		c0.797-0.404,1.623-0.779,2.4-1.44c1.078-0.917,1.858-1.906,2.64-3.36c0.188-0.35,0.646-0.915,0.72-1.2
		c0.59-2.262-0.391-5.282,0.72-8.88c0.176-0.224,0.436-0.364,0.72-0.48c1.993,0.057,3.75-0.078,5.52,0
		c1.427,0.063,3.242,0.162,4.32,0.48c2.487,0.734,4.764,2.221,7.2,3.36c1.197,0.56,2.421,1.109,3.6,1.68
		C78.677,66.08,79.81,66.552,80.641,67.44z"/>
	<path fill-rule="evenodd" clip-rule="evenodd" fill="#0393F1" d="M147.36,78.48c0.697,1.556,0.859,2.933,0.96,5.52
		c0.031,0.8,0.3,1.815,0.24,2.4c-0.22,2.146-2.06,3.987-2.16,6.24c-0.091,2.034,0.913,3.978,0.96,6c0.044,1.89-0.539,3.47-0.72,5.52
		c-1.977-0.304-3.461-1.316-5.04-0.48c-1.666,0.881-0.809,2.84-1.92,4.32c-1.662,0.519-3.662,0.092-5.521,0.24
		c-2.675,0.213-4.73,1.371-6.479-0.479c0.31-4.936-1.783-6.661-5.04-8.64c-0.77-0.468-1.559-0.858-2.4-1.2
		c-1.819-0.74-3.848-1.056-6.239-1.68c-0.226-3.136,0.059-6.022-0.48-9.36c-0.217-1.34-0.841-2.661-0.96-4.08
		c-0.057-0.678,0.229-1.349,0.24-2.16c0.009-0.661-0.3-1.373-0.24-1.92c0.274-2.544,1.683-4.604,1.44-6.72
		c-0.17-1.476-1.402-2.46-1.921-3.6c0.201-0.839,1.021-1.06,1.44-1.68c0.189-0.771,0.871-1.049,1.2-1.68
		c1.68-0.115,2.241-1.246,3.6-1.2c1.078,0.036,2.252,0.747,2.88,1.68c0.212,0.314,0.257,1.168,0.48,1.68
		c1.024,2.352,3.067,4.765,5.04,5.76c4.164,0.237,7.479-1.524,11.28-0.24c1.232,1.939,2.345,3.479,4.56,4.8
		C143.857,78.293,145.073,79.042,147.36,78.48z"/>
	<path fill-rule="evenodd" clip-rule="evenodd" fill="#0393F1" d="M172.08,81.12c0.063,0.783-0.931,0.509-0.96,1.2
		c-0.664,1.901-1.461,3.399-2.399,4.8c-0.227,0.337-0.279,0.731-0.48,0.96c-1.432,1.628-3.747,2.279-5.04,4.08
		c-0.196,1.548,0.469,2.511,0.24,3.6c-0.361,1.726-2.382,2.435-3.36,4.08c-0.675,1.134-0.689,2.168-1.199,3.6
		c-0.85-0.233-1.332,0.865-2.16,1.2c-0.542,0.219-1.203,0.041-1.92,0.24c-1.072,0.298-2.573,1.443-4.08,1.44
		c-1.156-0.002-2.078-0.583-3.12-0.96c0.216-2.659,0.863-4.893,0.72-7.44c-0.12-2.141-0.952-3.984-0.72-6
		c0.196-1.702,1.695-3.194,1.92-5.04c0.088-0.724-0.192-1.592-0.24-2.4c-0.157-2.686-0.101-4.32-1.2-6.48
		c0.675-1.406,2.226-2.273,3.36-3.36c0.313-0.3,0.467-0.703,0.72-0.96c0.459-0.466,1.264-1.012,1.92-1.44
		c0.419-0.273,1.001-0.815,1.681-0.96c2.657-0.564,5.112,0.289,7.2,0.96c2.417,0.778,4.616,1.648,6,3.36
		c0.691,0.856,0.915,1.986,1.439,2.88c0.058,0.098,0.442,0.157,0.48,0.24C171.159,79.339,171.769,80.24,172.08,81.12z"/>
	<path fill-rule="evenodd" clip-rule="evenodd" fill="#0393F1" d="M70.561,89.04c0.204-0.044,0.227,0.094,0.24,0.24
		c0.406,0.395,0.298,1.302,0.72,1.68c0.723,0.841,1.426,1.737,2.4,2.4c1.516,1.032,3.401,1.529,4.8,2.64
		c1.246,0.99,3.184,2.146,4.32,3.6c0.156,0.199,0.082,0.314,0.24,0.48c1.007,1.051,0.793,3.442,1.92,5.28
		c-0.199,0.841-0.957,1.124-1.68,1.44c-0.842,1.222-2.407,2.228-2.64,4.56c-0.115,1.156,0.644,2.399,0.48,3.6
		c-0.169,1.241-1.736,3.021-3.12,4.8c-1.016,1.306-1.64,2.142-2.64,3.36c-0.139,0.168-0.364,0.328-0.48,0.48
		c-0.14,0.183-0.084,0.517-0.24,0.72c-0.552,0.72-1.291,1.373-1.92,2.16c-0.279,0.35-0.416,0.851-0.72,1.2
		c-0.767,0.879-1.806,1.778-2.88,2.88c-1.131,1.16-1.624,2.341-3.36,1.44c-0.104-0.055-0.153-0.441-0.24-0.48
		c-0.123-0.056-0.37,0.073-0.48,0c-0.414-0.276-0.759-0.945-1.2-1.2c-0.673-0.39-1.565-0.401-2.16-0.72
		c-0.874-0.468-1.375-1.123-1.92-1.68c-0.8-0.08-1.064-0.695-2.16-0.48c-0.677-2.682-1.682-4.892-3.6-6.48
		c-0.936-0.775-2.346-1.06-3.12-2.16c0.783-2.247,2.693-3.202,2.16-6.24c-0.241-1.376-1.703-2.016-1.68-3.12
		c0.053-2.494,3.28-2.051,6-2.88c1.744-0.532,3.867-1.632,4.08-2.88c0.136-0.797-0.683-2.348-1.2-3.12
		c-0.405-0.604-0.733-1.103-1.2-2.16c-0.633-1.435-2.114-4.021-0.96-5.76c0.38-0.573,1.897-1.229,2.88-1.44
		c1.989-0.426,4.697,0.114,6.48-0.24C68.983,90.701,69.803,89.972,70.561,89.04z"/>
	<g>
		<path fill-rule="evenodd" clip-rule="evenodd" fill="#BC9C5E" d="M17.521,101.76c1.11-0.311,2.465-1.452,3.84-0.72
			c0.597,1.197-0.63,1.892-0.96,2.88c-0.216,0.795,1.333,1.041,0.72,1.44c0.215,0.775-0.783,0.337-0.96,0.72
			c0.458,0.33,1.174,1.004,1.68,1.68c0.408,0.544,0.862,1.238,1.44,2.4c0.571,1.147,0.825,1.857,1.2,3.36
			c0.293,1.172,0.588,0.939,0.24,2.4c-0.196,0.822-0.318,1.293-0.72,1.92c-0.332,0.517-1.049,1.161-2.16,1.2
			c-0.799-0.48-1.267-1.292-1.44-2.4c-1.94-0.483-4.533-0.049-6.48-0.48c-1.657-0.367-3.089-1.879-2.4-4.08
			c0.931-0.589,1.769-1.271,3.36-1.2c-0.346-1.281-1.759-0.658-2.64-0.72c-0.732-0.052-0.873-0.419-1.68-0.96
			c-0.881-0.59-0.891-0.619-1.68-1.68c-1.092-1.468-2.519-2.619-2.16-5.52c-0.318-1.276-1.272-1.125-1.44-2.16
			c-0.175-1.083,0.652-2.895,1.68-3.6c0.543-0.373,2.871-0.789,4.08-0.24c0.428,0.194,0.894,0.774,1.44,1.2
			c0.466,0.364,1.083,0.611,1.44,0.96c0.344,0.335,0.436,0.87,0.72,1.2C15.26,100.077,16.74,101.322,17.521,101.76z M17.28,102.72
			c-1.802-0.22-2.984-3.236-5.04-4.8c-0.186-0.142-0.608-0.26-0.96-0.48c-0.396-0.248-0.692-0.346-0.96-0.48
			c-1.961-0.98-4.007,0.526-4.08,2.64c0.039,1.081,1.359,0.881,1.44,1.92c-0.152,1.672,0.119,2.92,0.48,4.08
			c0.811,0.341,1.54,1.204,1.92,1.68c0.242,0.304,0.151,0.677,0.48,0.96c0.088,0.076,0.371-0.049,0.48,0
			c0.076,0.035,0.153,0.421,0.24,0.48c1.527,1.048,5.476-0.52,4.56,2.88c-1.244,0.761-2.958-0.131-3.6,1.44
			c0.081,3.839,6.291,1.549,8.88,2.88c0.314,0.806,0.409,1.831,1.2,2.16c0.65-0.455,1.275-1.175,1.44-1.92
			c0.48-2.158-0.535-3.317-1.2-4.8c-0.5-1.115-0.886-2.451-1.2-2.88c-0.742-1.014-2.225-1.334-2.4-2.4
			c0.432-0.798,0.568-1.357,0.24-2.4c0.298-0.536,1.778-1.506,0.72-1.92C19.086,102.314,18.421,102.859,17.28,102.72z"/>
		<path fill-rule="evenodd" clip-rule="evenodd" fill="#0393F1" d="M19.92,101.76c1.058,0.414-0.421,1.384-0.72,1.92
			c0.328,1.042,0.192,1.602-0.24,2.4c0.175,1.065,1.658,1.386,2.4,2.4c0.314,0.429,0.7,1.765,1.2,2.88
			c0.665,1.483,1.68,2.643,1.2,4.8c-0.165,0.745-0.79,1.465-1.44,1.92c-0.791-0.33-0.886-1.354-1.2-2.16
			c-2.589-1.331-8.799,0.959-8.88-2.88c0.641-1.571,2.355-0.679,3.6-1.44c0.916-3.399-3.033-1.832-4.56-2.88
			c-0.086-0.06-0.164-0.446-0.24-0.48c-0.109-0.049-0.392,0.076-0.48,0c-0.329-0.283-0.238-0.656-0.48-0.96
			c-0.38-0.476-1.109-1.338-1.92-1.68c-0.361-1.16-0.632-2.408-0.48-4.08c-0.081-1.039-1.401-0.839-1.44-1.92
			c0.073-2.114,2.119-3.62,4.08-2.64c0.268,0.134,0.564,0.232,0.96,0.48c0.352,0.22,0.774,0.338,0.96,0.48
			c2.055,1.564,3.238,4.58,5.04,4.8C18.421,102.859,19.086,102.314,19.92,101.76z"/>
	</g>
	<path fill-rule="evenodd" clip-rule="evenodd" fill="#0393F1" d="M134.4,130.08c-0.264,0.76-0.852,1.454-1.439,2.16
		c-0.06,0.071-0.451,0.175-0.48,0.24c-0.915,2.029-2.481,4.274-4.08,6c-0.745,0.805-1.588,1.708-2.64,2.16
		c-0.64-1.866-2.822-3.611-5.04-4.32c-1.866-0.597-3.679-0.825-4.8,0.48c-0.143,0.165-0.101,0.334-0.24,0.479
		c-0.709,0.739-0.951,2.869-2.4,3.36c-0.014-2.695-1.659-4.36-3.359-4.32c-3.26,0.078-3.829,6.07-6.721,6.48
		c-1.344-0.445-1.203-2.147-1.68-3.36c-0.45-1.146-1.109-2.245-1.68-3.12c0.549-1.017,1.144-1.921,1.92-2.88
		c0.203-0.252,0.566-0.475,0.72-0.72c0.707-1.133,0.96-2.679,1.68-3.84c0.059-0.094,0.443-0.159,0.48-0.24
		c0.241-0.537,0.79-1.425,1.439-1.92c-0.189-1.2,0.497-1.74,0.48-2.88c-0.021-1.441-1.131-2.846-1.2-4.32
		c-0.019-0.394,0.173-1.208,0.24-1.68c0.252-1.764,1.086-4.094,0.479-6c-0.379-1.194-0.976-2.289-1.68-3.36
		c-0.059-0.09-0.444-0.162-0.479-0.24c-0.056-0.122,0.073-0.369,0-0.479c-0.06-0.089-0.445-0.163-0.48-0.24
		c-0.183-0.406-0.478-1.38-1.2-1.68c-0.646,1.315,0.757,2.294,1.44,3.36c0.631,0.983,1.513,2.172,1.68,3.36
		c0.29,2.055-1.031,4.656-0.96,6.96c0.051,1.651,1.412,3.505,0.96,5.76c-0.226,1.128-1.069,1.534-1.68,2.4
		c-0.165,0.233-0.064,0.296-0.24,0.48c-0.49,0.512-1.153,2.8-1.92,3.6c-0.14,0.146-0.414,0.772-0.72,1.2
		c-0.466,0.65-1.118,1.475-1.68,2.399c-2.785-0.336-5.969-0.271-8.16-1.2c-0.323-1.5-1.232-2.829-1.92-4.32
		c-0.615-1.333-1.096-2.71-1.92-4.08c-0.75-1.248-1.31-2.097-2.4-2.88c-1.407-1.011-3.861-0.78-5.04-2.88
		c0.251-1.24,1.519-2.185,2.16-3.36c0.174-0.319,0.448-0.989,0.48-1.2c0.214-1.4-0.616-2.802-0.48-4.08
		c0.091-0.851,0.568-1.529,0.96-2.16c0.655-1.053,1.596-2.02,3.12-2.88c0.898,0.063,1.667,0.41,2.64,0.48
		c2.902,0.21,6.251-1.161,9.6-1.44c1.881-0.156,3.54,0.201,5.04-0.24c0.579-0.17,1.215-0.621,1.681-0.96
		c1.867-1.364,2.959-3.683,5.04-5.28c1.064-0.817,1.943-1.606,3.359-1.68c2.357-0.124,5.088,0.868,7.2,1.92
		c2.296,1.144,4.406,2.334,5.28,3.6c0.234,0.34,0.841,1.665,0.96,2.4c0.106,0.658,0.116,1.59,0,2.16
		c-0.26,1.278-1.915,2.313-2.4,3.6c-0.145,0.385-0.419,1.837-0.479,2.4c-0.294,2.691,0.388,4.685,1.199,6.48
		c0.134,0.295,0.315,0.579,0.48,0.96c0.087,0.2,0.434,0.774,0.48,0.96c0.262,1.053-0.072,2.126,0.239,3.12
		c0.354,1.128,1.052,1.532,1.92,2.64C130.601,127.96,133.079,128.441,134.4,130.08z"/>
	<path fill-rule="evenodd" clip-rule="evenodd" fill="#0393F1" d="M172.561,113.04c-0.173,1.378-1.775,1.822-1.92,3.6
		c-0.106,1.313,0.582,2.562,1.2,3.6c1.235,2.078,4.525,4.038,3.359,6.96c-0.35,0.876-1.503,1.845-3.12,2.64
		c-0.596,0.293-1.438,0.432-2.159,0.72c-1.275,0.509-2.286,1.203-4.32,1.2c-1.654-0.003-3.708-1.367-4.8,0.479
		c0.089,1.831,1.582,2.259,1.92,3.84c-0.418,1.346-2.28,1.823-3.84,2.641c-1.063,0.557-2.026,1.135-3.12,1.92
		c-0.223,0.159-0.788,0.324-0.96,0.479c-0.716,0.647-1.403,1.921-2.16,2.881c-0.976,1.237-1.958,2.04-1.92,3.119
		c0.058,1.666,1.589,1.794,2.399,3.12c-0.381,1.017-1.143,2.285-2.399,2.4c-1.271,0.116-2.297-0.891-3.12-1.68
		c-0.039-0.038-0.73-0.398-0.96-0.48c-1.686-0.6-3.69-1.206-6-1.2c-0.612,0.002-1.254,0.324-1.68,0.24
		c-0.829-0.164-1.531-0.803-2.4-1.2c-3.254,0.758-5.413,0.864-6.96-1.2c-0.155-0.206-0.33-0.751-0.48-0.96
		c-0.776-1.083-1.855-3.141-2.64-4.319c0.682-1.607,2.201-2.26,3.36-3.601c0.262-0.304,0.416-0.795,0.72-1.2
		c0.498-0.662,1.119-1.331,1.68-2.159c0.633-0.935,1.248-2.117,2.16-3.12c0.534-0.588,1.321-1.038,1.92-1.68
		c0.625-0.67,1.092-1.436,1.681-2.16c0.535-0.658,1.203-1.262,1.68-1.92c0.156-0.215,0.11-0.511,0.24-0.72
		c0.243-0.391,0.743-0.894,1.199-1.44c0.736-0.88,1.397-1.429,2.16-2.16c0.284-0.272,2.018-1.052,2.641-1.2
		c0.734-0.175,1.55,0.091,2.159,0c0.745-0.111,2.119-0.672,2.881-1.2c0.086-0.06,0.164-0.445,0.239-0.48
		c0.771-0.348,0.919-0.904,1.44-1.92c0.321-0.627,0.67-1.137,0.96-1.68c0.642-1.2,1.271-2.549,2.16-3.36
		c0.656-0.599,1.505-0.548,2.16-1.44c2.325,0.086,3.305-1.175,4.319-2.4c0.421-0.78,0.3-2.1,0.721-2.88
		c1.339-0.892,3.4-1.326,4.8-1.68c1.039-0.263,1.889,0.93,2.16,2.16c0.158,0.717-0.307,1.395-0.24,2.16
		C169.857,109.79,171.877,111.555,172.561,113.04z"/>
	<path fill-rule="evenodd" clip-rule="evenodd" fill="#0393F1" d="M158.881,104.88c0.134,0.346,0.374,0.586,0.72,0.72
		c0.033,2.033-2.112,1.887-1.92,4.08c-0.67,0.21-1.186,0.574-1.92,0.72c-0.582,0.794-1.189,1.288-1.681,1.92
		c-0.145,0.187-0.082,0.51-0.239,0.72c-0.091,0.12-0.397,0.126-0.48,0.24c-0.133,0.183-0.087,0.517-0.24,0.72
		c-0.074,0.1-0.426,0.146-0.479,0.24c-0.283,0.494-0.419,1.262-0.72,1.92c-0.112,0.246-0.39,0.533-0.48,0.72
		c-0.382,0.786-0.608,1.279-1.439,1.92c-0.587,0.453-1.764,0.302-3.12,0.48c-1.733,0.229-3.616,1.123-4.801,2.16
		c-1.034,0.906-1.818,2.023-2.64,2.88c-0.195,0.204-0.287,0.519-0.479,0.72c-0.196,0.204-0.288,0.519-0.48,0.72
		c-0.195,0.204-0.287,0.519-0.479,0.72c-0.559,0.582-1.186,1.962-2.4,2.64c-2.044-1.156-4.18-2.221-6.96-2.64
		c-0.316-0.788-1.129-1.01-1.44-1.92c-0.275-0.807,0.02-2.092-0.239-3.12c-0.268-1.058-0.895-1.77-1.44-2.88
		c-1.241-2.523-1.152-7.448,1.44-9.84c0.876-0.017,1.431,0.793,2.399,0.96c1.419,0.243,2.892-0.339,4.561-0.48
		c2.37-0.2,4.963,0.383,6.72-0.48c0.545-1.055,0.772-2.428,0.96-3.84c3.381-1.921,5.294,2.305,8.88,2.4
		c1.417,0.038,2.577-0.518,3.84-0.96c0.127-0.044,0.629-0.459,0.72-0.48c0.368-0.082,0.846,0.124,1.2,0
		c0.487-0.169,0.993-0.507,1.44-0.72C158.044,104.947,158.463,104.385,158.881,104.88z"/>
	<path fill-rule="evenodd" clip-rule="evenodd" fill="#0393F1" d="M61.681,180.96c-2.451,0.666-3.98,0.031-5.76-0.96
		c-0.737-0.411-1.381-1.04-2.16-1.44c-0.907-0.466-2.132-0.739-3.12-1.2c-0.521-0.243-0.921-0.461-1.44-0.72
		c-1.179-0.588-2.647-1.023-4.56-1.44c0.595-1.355,1.336-2.219,0.96-3.6c-0.509-1.867-2.689-1.41-4.32-2.16
		c0.351-1.159,1.714-1.826,2.4-2.88c0.265-0.407,0.26-0.98,0.48-1.44c0.217-0.453,0.534-0.775,0.72-1.199
		c1.061-2.425,1.906-5.522,2.4-8.641c0.187-1.176,0.204-2.26,0.48-3.359c0.599-2.382,2.415-5.433,2.4-8.4
		c1.065-0.455,2.111-0.929,2.4-2.16c-0.091-1.349-1.637-1.243-2.4-1.92c0.174-5.346,1.208-9.832,1.68-14.88
		c3.064,0.775,4.062,3.618,6,5.52c0.539-0.101,0.007-1.273,0.48-1.44c1.012,0.11,1.664,1.114,2.64,1.68
		c0.814,0.472,1.904,0.861,2.88,1.44c1.458,0.864,1.933,1.703,3.84,1.439c1.147-0.158,1.979-1.354,3.12-2.64
		c0.956-1.077,1.836-1.955,2.64-2.88c2.254-2.594,3.742-4.916,5.28-6.96c0.918,0.361,1.566,0.994,2.16,1.68
		c5.883,0.757,6.233,7.047,8.88,11.04c0.296,0.776-0.777,0.184-0.48,0.96c0.563,1.013-0.803,2.723-1.44,3.84
		c-0.257,0.452-0.452,0.984-0.72,1.44c-0.254,0.432-0.719,0.81-0.96,1.2c-0.267,0.431-0.465,1-0.72,1.439
		c-0.441,0.762-0.792,1.303-1.2,2.16c-0.055,0.115-0.127,0.514-0.24,0.72c-0.246,0.452-0.77,0.769-0.96,1.2
		c-0.285,0.646-0.475,1.698-0.72,2.4c-0.759,2.173-1.337,3.642-3.12,5.04c-1.087,0.853-2.181,1.277-3.84,1.92
		c-0.3,0.116-1.136,0.632-1.68,0.72c-0.59,0.096-1.429-0.083-1.92,0c-1.131,0.19-3.108,0.493-4.32,1.2
		c-0.145,0.084-0.352,0.415-0.48,0.479c-0.505,0.256-1.074,0.218-1.44,0.48c-1.033,0.741-1.442,1.635-1.92,3.36
		c-0.63,2.273-0.471,2.414,0.96,4.079c0.973,1.134,2.137,1.717,1.68,4.32c-0.146,0.835-0.847,2.065-1.2,3.12
		c-0.191,0.57-0.273,1.188-0.48,1.68C63.677,177.3,62.253,178.849,61.681,180.96z"/>
	<path fill-rule="evenodd" clip-rule="evenodd" fill="#0393F1" d="M174.961,138.48c-0.237,0.717-1.093,0.956-1.681,1.68
		c-1.05,1.293-1.922,3.7-0.479,6c-0.29,1.016-1.372,1.579-1.92,2.4c-0.839,1.256-1.588,2.796-0.721,4.32
		c0.094,0.164,0.391,0.335,0.48,0.479c0.121,0.195,0.095,0.487,0.24,0.72c0.383,0.614,1.17,1.134,1.439,2.16
		c-0.084,0.956-1.438,0.643-1.92,1.2c-0.733,0.787-0.976,2.064-1.92,2.64c-2.214,0.457-4.706,0.185-7.2,0.48
		c-2.197,0.261-3.977,0.449-4.8,2.16c-0.339,0.703-0.256,2.169-0.479,3.359c-0.209,1.106-0.65,2.2-0.721,3.12
		c-0.096,1.261,0.287,2.581,0,3.84c-3.728-0.422-5.827-3.71-9.84-4.079c-1.632-0.15-3.467,0.591-5.28,0.239
		c-1.593-0.308-3.541-2.418-5.76-2.399c1.199-2.314,4.081-4.259,5.521-6.96c0.761-1.43,1.053-2.041,1.199-4.32
		c0.023-0.353,0.27-0.989,0.24-1.2c-0.224-1.629-1.543-2.181-2.16-3.84c2.048-0.122,3.831,0.02,5.521,0.48
		c0.565,0.154,1.43,0.248,1.92,0.479c1.375,0.651,3.138,3.441,5.52,1.68c0.187-0.138,0.33-0.298,0.48-0.479
		c0.287-0.348,1.503-1.484,1.439-2.4c-0.096-1.396-2.304-1.56-2.399-3.12c-0.061-0.978,2.127-3.159,2.88-4.08
		c0.306-0.374,0.583-0.857,0.96-1.199c0.191-0.174,0.497-0.073,0.72-0.24c0.12-0.09,0.127-0.397,0.24-0.48
		c0.183-0.133,0.517-0.087,0.72-0.239c0.111-0.083,0.135-0.412,0.24-0.48c0.289-0.188,0.847-0.283,1.2-0.479
		c1.306-0.727,4.813-2.069,5.04-3.36c0.368-2.096-1.708-2.233-1.92-4.08c0.617-0.678,2.113,0.115,3.359,0.24
		c0.397,0.039,0.406-0.24,0.721-0.24c0.184,0,0.401,0.228,0.72,0.24c0.739,0.029,1.359-0.103,1.68,0
		c0.53,0.169,1.013,0.91,1.681,1.439C171.511,135.423,174.072,136.644,174.961,138.48z"/>
	<path fill-rule="evenodd" clip-rule="evenodd" fill="#0393F1" d="M97.92,136.08c0.522-0.032,0.568,1.023,0.96,1.2
		c0.084,0.038,0.427-0.067,0.48,0c0.371,0.47,0.4,1.202,0.72,1.92c0.104,0.232,0.358,0.436,0.48,0.721
		c0.583,1.36,0.68,3.539,2.16,3.84c1.734,0.352,3.185-1.583,4.08-2.88c1.081-1.565,2.332-5.041,4.56-2.641
		c0.288,0.311,0.825,0.674,0.96,1.2c0.191,0.745-0.208,1.633,0,2.64c0.086,0.416,0.303,0.993,0.48,1.44
		c0.202,0.509,0.304,1.024,0.479,1.44c0.375,0.886,0.999,1.587,1.44,2.399c0.46,0.848,0.705,1.845,1.2,2.641
		c0.501,0.806,1.303,1.366,1.68,2.159c0.242,0.512,0.293,1.299,0.479,1.92c0.211,0.7,0.521,1.179,0.48,1.681
		c-0.092,1.136-0.947,2.103-1.68,2.88c-0.703,0.745-1.725,1.42-2.641,1.92c-0.474,1.047-1.288,1.752-1.92,2.64
		c-1.579-0.193-2.96,0.15-3.84,0.96c-0.98,0.902-0.769,2.155-1.68,3.12c-0.313,0.331-2.34,1.558-3.12,1.681
		c-2.608,0.409-4.685-1.57-7.44-0.48c-1.309,0.518-2.052,1.935-2.16,2.88c-0.056,0.491,0.125,1.468,0.24,1.92
		c0.269,1.058,1.051,2.026,1.68,3.12c0.611,1.063,1.104,2.12,1.68,3.12c0.148,1.429-0.832,1.729-0.72,3.12
		c0.073,1.687,2.57,0.95,2.88,2.399c-1.418,0.662-3.444,0.716-4.56,1.681c-1.063-0.176-1.395-0.797-2.4-0.96
		c-0.746-0.122-1.608,0.257-2.4,0c-1.292-0.42-1.913-1.908-3.12-2.641c-0.309-0.187-0.628-0.07-0.96-0.239
		c-1.7-0.871-5.199-2.077-7.92-1.681c-0.868,0.493-0.319,2.401-1.2,2.88c-2.678,0.887-5.849,0.367-8.4-0.239
		c-2.572-0.612-4.905-1.611-6.24-3.12c0.766-1.235,1.76-3.03,2.64-5.04c0.782-1.787,1.723-3.701,1.92-5.521
		c0.394-3.631-1.669-4.112-3.12-6.479c0.305-1.135,0.655-2.226,0.96-3.36c2.059-1.456,4.402-2.491,6.72-2.88
		c0.657-0.11,1.258,0.087,1.92,0c2.831-0.372,7.008-2.91,8.4-5.28c0.403-0.687,0.676-1.626,0.96-2.399
		c0.301-0.822,0.39-1.855,0.72-2.641c0.43-1.022,1.16-1.906,1.68-2.88c0.438-0.819,0.578-1.396,1.2-2.16
		c0.562-0.688,1.303-2.24,1.92-3.359c0.529-0.961,1.163-1.823,1.44-2.88c0.085-0.315,0.422-0.378,0.48-0.721
		C92.673,135.727,94.935,136.266,97.92,136.08z"/>
	<path fill-rule="evenodd" clip-rule="evenodd" fill="#0393F1" d="M132.961,166.56c-1.531,0.253-3.475-0.325-5.28,0
		c-2.127,0.384-5.409,2.954-7.44,4.56c-1.58,1.25-3.458,2.75-4.56,4.801c-1.171,2.179-1.87,6.888-1.2,10.319
		c0.207,1.063,0.814,2.025,0.96,3.12c-3.159-0.072-6.696,1.361-10.08,1.44c-1.153,0.026-2.694-0.144-3.84-0.24
		c-1.658-0.14-2.54-0.771-3.84-1.44c-0.76-0.39-1.714-0.468-2.16-1.199c1.185-1.775,5.004-0.916,5.52-3.36
		c-0.135-1.465-2.215-0.985-2.88-1.92c-0.251-1.672,0.585-1.827,0.48-3.12c-0.061-0.751-0.496-1.322-0.96-2.16
		c-0.352-0.635-0.637-1.326-0.96-1.92c-0.8-1.469-1.994-2.705-1.44-4.56c0.07-0.235,1.107-1.51,1.68-1.681
		c1.911-0.569,3.704,1.004,5.76,0.96c0.946-0.02,1.828-0.365,2.64-0.72c0.765-0.334,1.739-0.778,2.16-1.2
		c0.466-0.466,0.608-1.246,0.96-1.92c0.264-0.504,0.589-1.047,0.96-1.68c0.998-0.282,2.26-0.301,3.36-0.48
		c1.146-0.511,1.237-1.704,2.16-2.64c0.579-0.588,1.548-0.917,2.159-1.44c1.038-0.888,1.534-1.558,2.16-2.88
		c0.565-1.193,0.506-1.951,0-3.6c-0.556-1.813-1.158-2.776-2.16-4.32c-1.267-1.954-2.576-4.436-3.359-6.96
		c-0.132-0.493,0.338-0.513,0.479-0.72c0.127-0.186,0.091-0.509,0.24-0.72c0.225-0.318,0.732-0.616,0.96-0.96
		c0.271-0.409,0.463-1.015,0.72-1.44c0.264-0.436,0.518-0.987,0.96-1.2c0.934-1.19,4.29,0.076,5.521,0.96
		c0.083,0.06,0.166,0.447,0.24,0.48c1.612,0.727,1.953,2.185,2.88,3.84c0.443,0.792,0.989,1.65,1.439,2.4
		c1.014,1.684,2.022,3.724,3.36,4.319c1.513,0.674,3.237,0.276,5.52,0c0.348,0.67,1.355,0.494,1.921,0.96
		c0.376,0.311,0.771,1.264,1.199,1.92c1.054,1.613,1.521,2.163,0.96,4.801c-0.078,0.367-0.36,0.838-0.479,1.199
		c-0.467,1.414-0.934,1.997-1.92,3.12C136.397,162.832,134.223,165.196,132.961,166.56z"/>
	<path fill-rule="evenodd" clip-rule="evenodd" fill="#0393F1" d="M184.32,152.16c-0.043,1.503-0.958,2.801-1.68,4.08
		c-0.507,0.897-0.675,1.323-1.44,2.16c-0.182,0.199-0.314,0.231-0.479,0.48c-0.431,0.648-1.472,1.195-2.16,1.92
		c-0.21,0.22-0.255,0.677-0.48,0.96c-0.164,0.206-0.558,0.277-0.72,0.479c-0.221,0.275-0.251,0.693-0.479,0.96
		c-0.17,0.198-0.565,0.278-0.721,0.48c-0.754,0.981-1.161,2.338-1.92,3.12c-1.042,1.074-2.742,1.563-3.84,2.64
		c-0.299,0.98-0.636,1.924-1.2,2.64c-3.418,1.374-8.771,2.741-12.96,1.2c0.121-2.236,0.359-4.915,0.721-7.439
		c0.199-1.396,0.53-2.683,1.439-3.601c2.244-0.458,5.24-0.489,7.92-0.72c0.846-0.072,1.975-0.089,2.4-0.24
		c1.629-0.578,1.583-2.063,2.64-3.12c0.913-0.504,1.579,0.173,2.4-0.239c0.029-3.31-2.355-4.205-3.12-6.721
		c0.697-1.302,1.286-2.714,2.399-3.6c0.936,0.499,2.392,1.472,3.36,2.4c0.176,0.168,1.206,0.506,1.68,0.96
		C179.377,152.203,181.943,152.064,184.32,152.16z"/>
	<g>
		<path fill-rule="evenodd" clip-rule="evenodd" fill="#BC9C5E" d="M26.161,165.84c1.033,0.858,2.965,0.85,3.36,2.64
			c0.175,0.794-0.512,2.037-0.72,3.6c-0.181,1.365,0.141,2.762-0.24,4.08c-0.037,0.127-0.453,0.39-0.48,0.48
			c-0.056,0.185,0.1,0.558,0,0.72c-0.648,1.053-1.836,1.137-2.16,1.68c-2.41,0.068-5.074-0.133-6.72-1.199
			c-0.974-0.632-2.729-1.47-3.84-2.16c-1.017-0.633-1.883-1.534-2.88-2.641c-0.736-0.816-1.568-1.632-1.92-2.64
			c-0.864,0.084-1.157,0.367-1.92,0c-0.759-1.642-0.08-4.721-0.96-6.24c0.734-0.466,1.416-0.984,2.4-1.199
			c0.538-2.582,3.24-3.001,5.04-4.32c4.161,0.063,7.864-0.097,9.6,2.399c0.451,0.648,0.48,1.598,0.72,2.4
			C25.667,164.201,25.958,164.985,26.161,165.84z M25.201,166.32c-0.6-0.902-0.629-2.883-0.96-3.6
			c-0.916-1.987-2.954-2.716-5.76-2.88c-1.028-0.061-2.257-0.124-2.88,0c-1.469,0.292-2.074,1.547-3.6,1.68
			c-0.483,1.597-1.417,2.742-3.12,3.12c-0.09,1.851,0.064,3.455,0.48,4.8c0.56,0,1.12,0,1.68,0c0.55,0.73,1.065,2.021,1.68,2.4
			c1.201,0.739,2.26,2.506,3.12,3.12c0.245,0.174,1.499,0.608,1.68,0.72c0.192,0.118,0.421,0.083,0.72,0.24
			c0.79,0.413,1.465,1.119,2.16,1.439c0.195,0.09,0.513-0.063,0.72,0c0.09,0.027,0.353,0.446,0.48,0.48
			c1.228,0.323,2.718,0.104,4.08,0.239c0.794-0.552,1.673-1.445,1.92-2.399c0.358-1.386,0.083-3.061,0.24-4.561
			c0.134-1.279,0.948-2.029,0.48-2.88C27.53,167.557,25.925,167.412,25.201,166.32z"/>
		<path fill-rule="evenodd" clip-rule="evenodd" fill="#0393F1" d="M28.32,168.24c0.468,0.851-0.346,1.601-0.48,2.88
			c-0.157,1.5,0.118,3.175-0.24,4.561c-0.247,0.954-1.126,1.848-1.92,2.399c-1.362-0.136-2.853,0.084-4.08-0.239
			c-0.127-0.034-0.39-0.453-0.48-0.48c-0.207-0.063-0.525,0.09-0.72,0c-0.695-0.32-1.37-1.026-2.16-1.439
			c-0.299-0.157-0.528-0.122-0.72-0.24c-0.181-0.111-1.436-0.546-1.68-0.72c-0.859-0.614-1.918-2.381-3.12-3.12
			c-0.615-0.379-1.13-1.67-1.68-2.4c-0.56,0-1.12,0-1.68,0c-0.416-1.345-0.57-2.949-0.48-4.8c1.703-0.378,2.637-1.523,3.12-3.12
			c1.526-0.133,2.131-1.388,3.6-1.68c0.623-0.124,1.852-0.061,2.88,0c2.807,0.164,4.844,0.893,5.76,2.88
			c0.331,0.717,0.36,2.697,0.96,3.6C25.925,167.412,27.53,167.557,28.32,168.24z"/>
	</g>
	<path fill-rule="evenodd" clip-rule="evenodd" fill="#BC9C5E" d="M188.641,176.64c1.692-0.079,1.265,1.841,1.439,2.88
		c0.416,2.462,0.508,5.02,1.2,7.44c0.621,2.168,2.146,4.52,1.681,8.159c-0.167,1.304-1.232,2.872-1.44,4.32
		c-0.349,2.433-0.42,6.107-0.96,8.64c-0.114,0.534-0.06,1.012-0.24,1.44c-0.312,0.738-1.642,1.917-2.88,1.92
		c-1.402,0.004-3.16-1.877-4.32-2.88c-1.158-1.001-1.417-1.24-2.159-3.12c-0.266-0.672-0.392-1.579-0.721-2.4
		c-0.521-1.304-1.543-2.643-1.92-3.84c-0.577-1.832-0.79-4.303-0.72-5.76c0.094-1.942,0.766-3.867,1.68-5.52
		c1.28-2.315,3.991-4.758,7.681-5.04C187.496,180.775,186.79,177.429,188.641,176.64z M187.681,183.84
		c-1.479,0.235-3.487,0.392-4.08,0.96c-0.201,0.192-0.516,0.284-0.72,0.479c-0.447,0.428-0.973,0.657-1.44,1.2
		c-0.174,0.201-0.078,0.488-0.24,0.72c-0.139,0.199-0.581,0.273-0.72,0.48c-0.229,0.339-0.511,1.008-0.72,1.439
		c-0.622,1.284-1.16,3.058-1.2,4.561c-0.041,1.509,0.228,3.479,0.72,5.04c0.407,1.29,1.418,2.528,1.92,3.84
		c0.477,1.243,0.604,2.461,0.96,3.36c0.247,0.624,0.856,1.096,1.44,1.68c0.379,0.379,0.756,0.832,1.2,1.2
		c1.788,1.479,2.789,2.188,4.08,0.96c1.002-0.954,1.023-2.795,1.199-4.561c0.237-2.371,0.289-5.188,0.721-6.96
		c0.305-1.251,1.112-2.704,1.2-3.84c0.173-2.235-0.677-4.378-1.2-6c-1.073-3.32-1.398-6.352-1.681-10.32
		c-0.053-0.187-0.2-0.278-0.479-0.239C187.736,179.255,188.185,182.024,187.681,183.84z"/>
	<path fill-rule="evenodd" clip-rule="evenodd" fill="#0393F1" d="M188.641,177.84c0.279-0.039,0.427,0.053,0.479,0.239
		c0.282,3.969,0.607,7,1.681,10.32c0.523,1.622,1.373,3.765,1.2,6c-0.088,1.136-0.896,2.589-1.2,3.84
		c-0.432,1.771-0.483,4.589-0.721,6.96c-0.176,1.766-0.197,3.606-1.199,4.561c-1.291,1.229-2.292,0.52-4.08-0.96
		c-0.444-0.368-0.821-0.821-1.2-1.2c-0.584-0.584-1.193-1.056-1.44-1.68c-0.355-0.899-0.483-2.117-0.96-3.36
		c-0.502-1.312-1.513-2.55-1.92-3.84c-0.492-1.562-0.761-3.531-0.72-5.04c0.04-1.503,0.578-3.276,1.2-4.561
		c0.209-0.432,0.491-1.101,0.72-1.439c0.139-0.207,0.581-0.281,0.72-0.48c0.162-0.231,0.066-0.519,0.24-0.72
		c0.468-0.543,0.993-0.772,1.44-1.2c0.204-0.195,0.519-0.287,0.72-0.479c0.593-0.568,2.602-0.725,4.08-0.96
		C188.185,182.024,187.736,179.255,188.641,177.84z"/>
	<g>
		<path fill-rule="evenodd" clip-rule="evenodd" fill="#BC9C5E" d="M24.48,204.96c-1.744,0.976-3.527,1.912-5.04,3.119
			c-1.29,0.393-2.747-0.546-3.84,0c-0.246,0.124-0.6,1.077-1.44,0.96c-0.545-0.526-1.231-0.679-1.68-1.199
			c-0.359-0.417-0.935-1.461-0.96-1.92c-0.061-1.104,1.168-2.215,1.44-3.36c0.167-0.702,0.232-1.987,0.24-2.88
			c0.012-1.399-0.156-3.304-0.48-4.561c-0.18-0.694-0.847-1.632-0.96-2.64c-0.374-3.316,1.246-7.18,4.56-6.72
			c1.235,0.171,2.489,1.164,3.84,1.92c1.82,1.018,3.673,1.976,5.28,3.12c0.763,0.543,2.287,1.458,3.12,2.399
			c0.449,0.507,0.931,1.188,0.96,1.681c0.076,1.303-1.318,2.066-2.16,3.359c-0.109,0.169,0.087,0.537,0,0.721
			c-0.038,0.079-0.784,0.675-0.96,0.96c-0.188,0.305-0.316,0.678-0.48,0.96C25.341,201.875,25.057,203.357,24.48,204.96z M25.44,192
			c-0.209-0.16-0.489-0.079-0.72-0.24c-0.197-0.138-0.271-0.59-0.48-0.721c-1.027-0.641-2.723-1.182-4.08-1.92
			c-1.452-0.789-2.892-2.128-4.08-2.159c-1.973-0.053-3.155,1.649-3.36,3.6c-0.216,2.047,0.598,2.998,0.96,4.56
			c0.877,3.787,0.341,7.854-1.2,10.561c0.713,0.486,0.512,1.889,1.68,1.92c0.708,0.452,0.942-0.592,1.2-0.72
			c1-0.5,2.254,0.415,3.12,0.239c0.873-0.177,1.644-0.986,2.4-1.439c0.996-0.598,1.783-1.048,2.64-1.44
			c0.615-2.745,2.148-4.571,3.12-6.96c0.884-0.556,1.505-1.374,1.92-2.399C27.373,193.976,26.459,192.779,25.44,192z"/>
		<path fill-rule="evenodd" clip-rule="evenodd" fill="#0393F1" d="M28.561,194.88c-0.415,1.025-1.036,1.844-1.92,2.399
			c-0.972,2.389-2.505,4.215-3.12,6.96c-0.857,0.393-1.645,0.843-2.64,1.44c-0.756,0.453-1.527,1.263-2.4,1.439
			c-0.866,0.176-2.12-0.739-3.12-0.239c-0.257,0.128-0.492,1.172-1.2,0.72c-1.168-0.031-0.967-1.434-1.68-1.92
			c1.542-2.706,2.078-6.773,1.2-10.561c-0.362-1.562-1.176-2.513-0.96-4.56c0.205-1.95,1.387-3.652,3.36-3.6
			c1.188,0.031,2.628,1.37,4.08,2.159c1.357,0.738,3.053,1.279,4.08,1.92c0.208,0.131,0.283,0.583,0.48,0.721
			c0.231,0.161,0.511,0.08,0.72,0.24C26.459,192.779,27.373,193.976,28.561,194.88z"/>
	</g>
	<g>
		<path fill-rule="evenodd" clip-rule="evenodd" fill="#BC9C5E" d="M9.36,223.44c0.216,0.703,0.216,0.737,0,1.44
			c-0.591,0.031-1.156,0.036-1.44-0.24C7.981,223.821,8.434,223.393,9.36,223.44z"/>
		<path fill-rule="evenodd" clip-rule="evenodd" fill="#BC9C5E" d="M16.081,228c0.187,1.386-0.789,1.61-1.2,2.399
			c-0.203,1.003,0.467,1.134,0.48,1.92c-0.385,0.735-0.795,1.445-1.2,2.16c0.236,2.236-0.35,3.65-2.64,3.36
			c-1.128-0.952-1.576-2.584-1.92-4.32c0.045-0.675,0.417-1.022,1.2-0.96c-0.534-0.586-0.526-1.714-0.48-2.88
			c-0.247-0.793-1.826-0.254-1.92-1.2c-0.059-1.819,1.495-2.025,1.92-3.36c0.24,0,0.48,0,0.72,0c0.618,0.423,1.036,1.044,1.68,1.44
			C13.892,226.989,15.605,226.875,16.081,228z M11.041,226.32c-0.24,0-0.48,0-0.72,0c-0.354,0.606-0.848,1.072-0.96,1.92
			c0.76,0.28,1.689,0.391,1.92,1.2c0,0.72,0,1.44,0,2.16c0.737,0.862,1.774,1.426,1.68,3.12c-0.342,0.058-0.405,0.395-0.72,0.479
			c-0.812,0.384-1.024-1.019-1.44-0.239c0.609,0.511,0.343,1.896,1.44,1.92c1.107-0.092,1.353-1.505,0.96-2.4
			c0.376-0.664,0.746-1.334,0.96-2.16c0.128-0.928-0.429-1.172-0.24-2.16c0.145-0.895,1.103-0.977,1.2-1.92
			C13.781,227.58,11.651,227.709,11.041,226.32z"/>
		<path fill-rule="evenodd" clip-rule="evenodd" fill="#0393F1" d="M15.121,228.24c-0.097,0.943-1.055,1.025-1.2,1.92
			c-0.188,0.988,0.369,1.232,0.24,2.16c-0.214,0.826-0.584,1.496-0.96,2.16c0.393,0.896,0.147,2.309-0.96,2.4
			c-1.097-0.023-0.832-1.409-1.44-1.92c0.416-0.779,0.629,0.623,1.44,0.239c0.315-0.085,0.377-0.422,0.72-0.479
			c0.094-1.694-0.943-2.258-1.68-3.12c0-0.72,0-1.44,0-2.16c-0.23-0.81-1.16-0.92-1.92-1.2c0.112-0.848,0.606-1.313,0.96-1.92
			c0.24,0,0.48,0,0.72,0C11.651,227.709,13.781,227.58,15.121,228.24z"/>
		<path fill-rule="evenodd" clip-rule="evenodd" fill="#BC9C5E" d="M17.521,228c0.618,0.307,0.925,1.779,0.48,2.399
			C16.709,230.139,16.609,228.726,17.521,228z"/>
	</g>
	<g>
		<path fill-rule="evenodd" clip-rule="evenodd" fill="#BC9C5E" d="M66.24,222.96c0.16,0,0.32,0,0.48,0
			c1.393,0.244,0.989,4.7,0.96,6c-2.075,0.826-3.424-0.804-4.08-2.16c0.381-0.579,1.059-0.861,1.44-1.44
			C64.971,224.09,65.383,223.302,66.24,222.96z M65.761,226.08c-0.412,0.309-0.944,0.497-0.96,1.2
			c0.702,0.338,0.829,1.252,2.16,0.96c-0.059-1.302-0.385-2.335-0.24-3.84c-0.053-0.187-0.201-0.279-0.48-0.24
			C66.027,224.747,65.681,225.201,65.761,226.08z"/>
		<path fill-rule="evenodd" clip-rule="evenodd" fill="#0393F1" d="M66.24,224.16c0.279-0.039,0.427,0.054,0.48,0.24
			c-0.145,1.505,0.181,2.538,0.24,3.84c-1.331,0.292-1.458-0.622-2.16-0.96c0.017-0.703,0.549-0.892,0.96-1.2
			C65.681,225.201,66.027,224.747,66.24,224.16z"/>
		<path fill-rule="evenodd" clip-rule="evenodd" fill="#BC9C5E" d="M64.8,229.44c0.24,0,0.48,0,0.72,0c0,0.32,0,0.64,0,0.96
			c-0.501,0.102-0.636-0.164-0.96-0.24C64.688,229.967,64.811,229.77,64.8,229.44z"/>
		<path fill-rule="evenodd" clip-rule="evenodd" fill="#BC9C5E" d="M64.081,234c-1.868,1.045-4.842,0.392-4.8-1.921
			c-0.039-0.278,0.053-0.427,0.24-0.479c0.194-0.046,0.239-0.241,0.48-0.24C61.367,232.233,63.896,231.945,64.081,234z
			 M62.641,233.28c-0.472-0.106-1.484-0.89-1.92-0.24C60.957,233.382,62.231,233.904,62.641,233.28z"/>
		<path fill-rule="evenodd" clip-rule="evenodd" fill="#0393F1" d="M60.721,233.04c0.436-0.649,1.448,0.134,1.92,0.24
			C62.231,233.904,60.957,233.382,60.721,233.04z"/>
		<path fill-rule="evenodd" clip-rule="evenodd" fill="#BC9C5E" d="M66.48,235.2c-0.092,1.108-2.274,1.135-3.12,0.721
			c0-0.32,0-0.641,0-0.96C63.953,234.665,66.253,234.368,66.48,235.2z"/>
	</g>
	<g>
		<path fill-rule="evenodd" clip-rule="evenodd" fill="#BC9C5E" d="M133.681,223.2c0.611,0.313,1.595,0.873,2.16,1.44
			c0.535,0.538,1.65,1.095,0.96,2.16c-0.836-0.11-1.354-1.063-1.92-1.681C134.371,224.563,133.167,224.061,133.681,223.2z"/>
		<path fill-rule="evenodd" clip-rule="evenodd" fill="#BC9C5E" d="M129.36,229.2c0.75-0.109,0.768,0.513,0.72,1.2
			C129.17,230.609,128.954,229.603,129.36,229.2z"/>
		<path fill-rule="evenodd" clip-rule="evenodd" fill="#BC9C5E" d="M134.641,234.48c-1.346,0.252-1.544-0.909-2.64-0.24
			c-1.354-1.206-2.799-2.321-5.04-2.64c-0.106-0.214-0.211-0.43-0.48-0.48c0.68-1.032,2.551,0.285,4.08,0.48
			c0.511,0.065,1.256-0.141,1.68,0c0.692,0.23,0.966,0.69,1.44,1.2c0.142,0.151,0.835,0.184,0.96,0.479
			C134.783,233.62,134.532,234.125,134.641,234.48z"/>
		<path fill-rule="evenodd" clip-rule="evenodd" fill="#BC9C5E" d="M133.44,230.88c0.82-0.101,1.367,0.072,1.2,0.96
			C134.159,232.292,133.525,231.545,133.44,230.88z"/>
		<path fill-rule="evenodd" clip-rule="evenodd" fill="#BC9C5E" d="M123.12,231.84c0.206,0.766-0.377,0.742-0.479,1.199
			c-0.694-0.105-1.094-0.506-1.2-1.199C121.761,231.498,122.8,231.498,123.12,231.84z"/>
		<path fill-rule="evenodd" clip-rule="evenodd" fill="#BC9C5E" d="M124.32,232.8c0.612,0.027,1.235,0.045,1.2,0.72
			C125.165,233.879,124.28,233.542,124.32,232.8z"/>
		<path fill-rule="evenodd" clip-rule="evenodd" fill="#BC9C5E" d="M135.36,234c0.752-0.112,1.071,0.208,0.96,0.96
			C135.569,235.072,135.249,234.751,135.36,234z"/>
		<path fill-rule="evenodd" clip-rule="evenodd" fill="#BC9C5E" d="M135.36,236.16c0.561,0,1.12,0,1.68,0
			C136.991,236.857,135.152,237.259,135.36,236.16z"/>
		<path fill-rule="evenodd" clip-rule="evenodd" fill="#BC9C5E" d="M124.801,239.52c0.924-0.189,0.924,1.149,0,0.96
			C124.822,239.825,124.4,239.997,124.801,239.52z"/>
		<path fill-rule="evenodd" clip-rule="evenodd" fill="#BC9C5E" d="M128.4,240.72c0.628-0.067,1.032,0.088,0.96,0.72
			C128.911,241.912,128.204,241.579,128.4,240.72z"/>
	</g>
	<g>
		<path fill-rule="evenodd" clip-rule="evenodd" fill="#BC9C5E" d="M105.601,247.44c0.039,1.081,1.359,0.881,1.439,1.92
			c-0.613,1.496-1.251,3.695-2.88,3.36c-0.846-0.174-1.202-0.959-1.199-1.681c0.003-0.988,1.046-1.293,1.439-2.159
			c0.419-2.956-2.853-4.77-0.72-7.2c0.24,0,0.479,0,0.72,0c0.095,1.334,2.063,1.993,2.16,3.359
			C106.643,246.209,106.166,246.265,105.601,247.44z M105.601,246c0.414-1.069-0.607-2.093-1.68-2.4
			C104.219,244.662,104.286,245.955,105.601,246z M104.16,251.52c0.774,0.297,0.915-0.442,1.2-0.96c0.16-0.291,1.045-1.309,0-1.2
			C105.349,250.468,103.993,250.233,104.16,251.52z"/>
		<path fill-rule="evenodd" clip-rule="evenodd" fill="#0393F1" d="M103.921,243.6c1.072,0.308,2.094,1.331,1.68,2.4
			C104.286,245.955,104.219,244.662,103.921,243.6z"/>
		<path fill-rule="evenodd" clip-rule="evenodd" fill="#0393F1" d="M105.36,249.36c1.045-0.108,0.16,0.909,0,1.2
			c-0.285,0.518-0.426,1.257-1.2,0.96C103.993,250.233,105.349,250.468,105.36,249.36z"/>
		<path fill-rule="evenodd" clip-rule="evenodd" fill="#BC9C5E" d="M108.961,252.48c-0.61,0.438-1.337,0.902-2.16,0.48
			C106.319,250.68,109.397,249.549,108.961,252.48z"/>
	</g>
	<g>
		<path fill-rule="evenodd" clip-rule="evenodd" fill="#BC9C5E" d="M28.8,133.68c-4.339,0.125-8.678,2.32-12.96,0.96
			c-0.646,1.011-0.567,2.175-0.72,3.36c-0.157,1.222,0.002,2.559-0.48,3.6c-0.816,1.761-2.61,2.177-3.84,3.36
			c-0.539-0.205-0.997-0.462-1.44-0.96c-0.783-0.884-0.906-1.827-1.44-3.36c-0.205-0.59-0.677-0.987-0.72-1.44
			c-0.079-0.821,0.359-1.637,0.24-2.399c-0.319-2.046-2.275-3.748-1.2-6.72c1.082-0.745,1.293-1.121,1.92-1.2
			c0.606-0.077,3.706,0.995,4.32,1.68c0.388,0.433,0.517,1.352,1.92,0.96c0.709-0.197,1.096-0.857,1.2-1.44
			c0.227-1.274-0.762-1.972-0.72-3.12c0.056-1.526,2.061-4.669,3.84-4.56c2.826,0.173,1.883,5.515,4.08,7.2
			c0.31,0.237,1.29,0.485,1.92,0.72c1.17,0.437,2.741,0.706,3.6,1.681C28.603,132.32,29.139,132.846,28.8,133.68z M18.48,123.36
			c-2.06,1.028-3.341,3.681-1.92,6.24c-1.141,1.918-0.576,3.724,0.96,4.56c3.791,0.11,6.128-1.231,9.84-1.199
			c-0.761-1.721-2.845-1.331-4.32-2.16c-1.746-0.982-2.314-2.704-2.88-4.561c-0.24-0.786,0.156-2.185-1.2-2.64
			C18.908,123.413,18.76,123.321,18.48,123.36z M14.88,132.48c-0.538-0.64-1.203,0.339-1.68-0.24c-0.3-0.509-1-0.836-1.68-1.2
			c-0.916-0.489-2.708-1.286-3.36-0.959c-0.16,0-0.32,0-0.48,0c-0.054,0.395-0.593,0.522-0.72,0.959
			c-0.765,2.636,1.332,3.722,1.44,5.761c0.047,0.879-0.312,1.626-0.24,2.16c0.11,0.817,0.586,1.861,0.96,2.64
			c0.394,0.819,0.828,2.024,1.68,2.16c1.86-0.923,3.103-2.01,3.36-4.32c0.177-1.59,0.224-3.089,0.24-4.56
			c0.017-0.864,1.095-0.665,0.96-1.681C15.059,133.102,14.87,132.89,14.88,132.48z"/>
		<path fill-rule="evenodd" clip-rule="evenodd" fill="#0393F1" d="M18.96,123.6c1.356,0.455,0.96,1.854,1.2,2.64
			c0.565,1.856,1.134,3.579,2.88,4.561c1.475,0.829,3.559,0.439,4.32,2.16c-3.712-0.032-6.049,1.31-9.84,1.199
			c-1.536-0.836-2.101-2.642-0.96-4.56c-1.421-2.56-0.14-5.212,1.92-6.24C18.76,123.321,18.908,123.413,18.96,123.6z"/>
		<path fill-rule="evenodd" clip-rule="evenodd" fill="#BC9C5E" d="M33.84,128.88c1.737,1.615-0.333,4.06-2.64,2.88
			C31.299,130.019,32.191,129.071,33.84,128.88z M32.4,131.04c0.558-0.082,1.125-0.155,0.96-0.959
			C32.75,130.109,32.43,130.429,32.4,131.04z"/>
		<path fill-rule="evenodd" clip-rule="evenodd" fill="#0393F1" d="M15.36,133.2c0.135,1.016-0.943,0.816-0.96,1.681
			c-0.016,1.471-0.063,2.97-0.24,4.56c-0.258,2.311-1.5,3.397-3.36,4.32c-0.852-0.136-1.286-1.341-1.68-2.16
			c-0.374-0.778-0.85-1.822-0.96-2.64c-0.072-0.534,0.287-1.281,0.24-2.16c-0.108-2.039-2.205-3.125-1.44-5.761
			c0.127-0.438,0.667-0.565,0.72-0.959c0.16,0,0.32,0,0.48,0c0.652-0.327,2.444,0.47,3.36,0.959c0.681,0.364,1.38,0.691,1.68,1.2
			c0.477,0.579,1.142-0.399,1.68,0.24C14.87,132.89,15.059,133.102,15.36,133.2z"/>
		<path fill-rule="evenodd" clip-rule="evenodd" fill="#0393F1" d="M33.36,130.08c0.165,0.804-0.402,0.877-0.96,0.959
			C32.43,130.429,32.75,130.109,33.36,130.08z"/>
		<path fill-rule="evenodd" clip-rule="evenodd" fill="#BC9C5E" d="M27.121,141.6c1.892,2.254,1.065,6.104-1.92,6.24
			c-1.424,0.064-2.756-0.689-2.88-2.4c-0.13-1.795,1.355-2.034,1.44-4.08C24.933,141.388,26.29,141.231,27.121,141.6z
			 M24.721,142.32c-0.479,1.201-1.553,1.808-1.44,3.601c0.187,0.053,0.279,0.2,0.24,0.479c0.896,0.65,2.194,0.493,3.12,0
			c0.411-0.869,0.599-1.961,0.48-3.36C26.536,142.584,25.934,142.147,24.721,142.32z"/>
		<path fill-rule="evenodd" clip-rule="evenodd" fill="#0393F1" d="M27.121,143.04c0.119,1.399-0.069,2.491-0.48,3.36
			c-0.926,0.493-2.224,0.65-3.12,0c0.039-0.279-0.053-0.427-0.24-0.479c-0.113-1.793,0.961-2.399,1.44-3.601
			C25.934,142.147,26.536,142.584,27.121,143.04z"/>
		<path fill-rule="evenodd" clip-rule="evenodd" fill="#BC9C5E" d="M14.88,145.68c0.956,2.047-0.967,3.154-2.88,3.12
			c-0.346-0.534-0.603-1.157-0.48-2.16c0.167-0.188,1.339-0.534,1.44,0C13.67,146.389,13.666,145.425,14.88,145.68z"/>
	</g>
	<g>
		<path fill-rule="evenodd" clip-rule="evenodd" fill="#BC9C5E" d="M37.92,253.92c-2.769,0.135-5.452-1.941-7.44-3.36
			c-0.748-0.534-1.586-0.897-2.16-1.44c-1.003-0.948-1.762-2.309-2.64-3.6c-0.83-1.22-2.293-2.809-1.92-3.84
			c1.608-0.567,2.76,0.875,4.32,2.16c0.771,0.634,1.554,1.12,2.4,1.92c0.045,0.043,0.454,0.203,0.48,0.24
			c0.066,0.093-0.081,0.403,0,0.479c0.227,0.212,0.705,0.225,0.96,0.48c0.305,0.305,0.21,0.716,0.48,0.96
			c0.241,0.217,0.709,0.242,0.96,0.479c0.552,0.521,1.396,1.288,2.16,1.92c0.506,0.419,1.136,0.818,1.44,1.2
			c0.165,0.207,0.067,0.534,0.24,0.72C37.404,252.458,38.177,253.013,37.92,253.92z M27.84,247.2c0.42,0.615,0.897,0.755,1.44,1.2
			c0.114,0.093,0.129,0.376,0.24,0.48c0.188,0.175,0.506,0.075,0.72,0.239c0.627,0.482,1.083,1.048,1.68,1.44
			c1.295,0.852,2.833,1.614,4.32,2.16c0.378-0.425-0.347-0.574-0.48-0.72c-1.479-1.627-3.332-2.972-4.8-4.32
			c-0.657-0.604-1.255-1.353-1.92-1.92c-0.575-0.491-1.341-0.716-1.92-1.2c-0.575-0.48-0.817-1.411-1.68-1.44
			c-0.003-0.242-0.42-0.302-0.48,0C25.959,244.457,27.031,246.016,27.84,247.2z"/>
		<path fill-rule="evenodd" clip-rule="evenodd" fill="#0393F1" d="M24.96,243.12c0.06-0.302,0.477-0.242,0.48,0
			c0.863,0.029,1.105,0.96,1.68,1.44c0.579,0.484,1.345,0.709,1.92,1.2c0.665,0.567,1.263,1.316,1.92,1.92
			c1.468,1.349,3.32,2.693,4.8,4.32c0.133,0.146,0.859,0.295,0.48,0.72c-1.487-0.546-3.025-1.309-4.32-2.16
			c-0.597-0.393-1.053-0.958-1.68-1.44c-0.214-0.164-0.532-0.064-0.72-0.239c-0.111-0.104-0.126-0.388-0.24-0.48
			c-0.543-0.445-1.02-0.585-1.44-1.2C27.031,246.016,25.959,244.457,24.96,243.12z"/>
		<path fill-rule="evenodd" clip-rule="evenodd" fill="#BC9C5E" d="M34.8,244.56c-0.137,0.663-0.254,1.346-1.2,1.2
			C33.545,244.905,33.946,244.505,34.8,244.56z"/>
		<path fill-rule="evenodd" clip-rule="evenodd" fill="#BC9C5E" d="M38.88,248.64c0.954-0.074,1.299,0.461,1.2,1.439
			c-0.979,0.1-1.514-0.245-1.44-1.199C38.845,248.924,38.867,248.787,38.88,248.64z"/>
		<path fill-rule="evenodd" clip-rule="evenodd" fill="#BC9C5E" d="M36.96,245.04c0.472,1.094,0.987,2.439,0.72,3.601
			C35.147,249.156,34.327,245.023,36.96,245.04z"/>
	</g>
</g>
<g id="Calque_2_xA0_Image_1_" display="none">
</g>
</svg>
